<?xml version="1.0" encoding="UTF-8" standalone="no"?>
<!DOCTYPE svg PUBLIC "-//W3C//DTD SVG 1.1//EN" "http://www.w3.org/Graphics/SVG/1.1/DTD/svg11.dtd">
<svg width="100%" height="100%" viewBox="0 0 2126 1772" version="1.1" xmlns="http://www.w3.org/2000/svg" xmlns:xlink="http://www.w3.org/1999/xlink" xml:space="preserve" xmlns:serif="http://www.serif.com/" style="fill-rule:evenodd;clip-rule:evenodd;stroke-linecap:round;stroke-linejoin:round;stroke-miterlimit:1.5;">
    <g transform="matrix(1,0,0,1,-239.482,-533.551)">
        <path d="M304.783,1429.94L2255.7,1429.94L1280.9,1429.94L1280.9,646.434L1280.9,2200.08" style="fill:none;stroke:black;stroke-width:4.17px;"/>
    </g>
    <g transform="matrix(1,0,0,1,-239.482,-533.551)">
        <path d="M2021.14,1429.94L540.654,1429.94L540.654,1882.93L794.768,1882.93L794.768,1429.94L2021.14,1429.94ZM2021.14,1429.94L1767.03,1429.94L1767.03,976.957L2021.14,976.957L2021.14,1429.94Z" style="fill:none;stroke:rgb(0,35,255);stroke-width:8.33px;"/>
    </g>
    <g transform="matrix(0.5,0,0,1,30.845,-530.271)">
        <g transform="matrix(1,0,0,1,1.61182,1.09336)">
            <path d="M540.654,1692.97L502.042,1654.36L540.654,1692.97Z" style="stroke:rgb(122,0,255);stroke-width:10.54px;"/>
        </g>
        <g transform="matrix(1,0,0,1,1.61182,1.09336)">
            <path d="M576.043,1654.36L540.654,1692.97" style="stroke:rgb(122,0,255);stroke-width:10.54px;"/>
        </g>
    </g>
    <g transform="matrix(-0.5,6.12323e-17,-1.22465e-16,-1,825.235,2819.24)">
        <g transform="matrix(1,0,0,1,1.61182,1.09336)">
            <path d="M540.654,1692.97L502.042,1654.36L540.654,1692.97Z" style="stroke:rgb(122,0,255);stroke-width:10.54px;"/>
        </g>
        <g transform="matrix(1,0,0,1,1.61182,1.09336)">
            <path d="M576.043,1654.36L540.654,1692.97" style="stroke:rgb(122,0,255);stroke-width:10.54px;"/>
        </g>
    </g>
    <g transform="matrix(0.5,0,0,1,1256.86,-1007.47)">
        <g transform="matrix(1,0,0,1,1.61182,1.09336)">
            <path d="M540.654,1692.97L502.042,1654.36L540.654,1692.97Z" style="stroke:rgb(122,0,255);stroke-width:10.54px;"/>
        </g>
        <g transform="matrix(1,0,0,1,1.61182,1.09336)">
            <path d="M576.043,1654.36L540.654,1692.97" style="stroke:rgb(122,0,255);stroke-width:10.54px;"/>
        </g>
    </g>
    <g transform="matrix(3.06162e-17,-0.5,1,6.12323e-17,322.157,1166.72)">
        <g transform="matrix(1,0,0,1,1.61182,1.09336)">
            <path d="M540.654,1692.97L502.042,1654.36L540.654,1692.97Z" style="stroke:black;stroke-width:10.54px;"/>
        </g>
        <g transform="matrix(1,0,0,1,1.61182,1.09336)">
            <path d="M576.043,1654.36L540.654,1692.97" style="stroke:black;stroke-width:10.54px;"/>
        </g>
    </g>
    <g transform="matrix(-0.5,6.12323e-17,-1.22465e-16,-1,2051.99,2342.04)">
        <g transform="matrix(1,0,0,1,1.61182,1.09336)">
            <path d="M540.654,1692.97L502.042,1654.36L540.654,1692.97Z" style="stroke:rgb(122,0,255);stroke-width:10.54px;"/>
        </g>
        <g transform="matrix(1,0,0,1,1.61182,1.09336)">
            <path d="M576.043,1654.36L540.654,1692.97" style="stroke:rgb(122,0,255);stroke-width:10.54px;"/>
        </g>
    </g>
    <g transform="matrix(-0.5,6.12323e-17,-1.22465e-16,-1,1311.74,1806.14)">
        <g transform="matrix(1,0,0,1,1.61182,1.09336)">
            <path d="M540.654,1692.97L502.042,1654.36L540.654,1692.97Z" style="stroke:black;stroke-width:10.54px;"/>
        </g>
        <g transform="matrix(1,0,0,1,1.61182,1.09336)">
            <path d="M576.043,1654.36L540.654,1692.97" style="stroke:black;stroke-width:10.54px;"/>
        </g>
    </g>
    <g transform="matrix(1,0,0,1,-245.291,-697.076)">
        <text x="2216.68px" y="1525.35px" style="font-family:'ArialMT', 'Arial', sans-serif;font-size:125px;">w</text>
    </g>
    <g transform="matrix(1,0,0,1,-1115.42,-1355.4)">
        <text x="2216.68px" y="1525.35px" style="font-family:'ArialMT', 'Arial', sans-serif;font-size:125px;">y</text>
    </g>
    <g transform="matrix(1,0,0,1,-239.482,-533.551)">
        <path d="M1262.4,976.957L1299.4,976.957" style="fill:none;stroke:black;stroke-width:4.17px;"/>
        <g transform="matrix(1,0,0,1,-34.6917,36.4626)">
            <text x="1180.18px" y="985.233px" style="font-family:'ArialMT', 'Arial', sans-serif;font-size:125px;">M</text>
        </g>
    </g>
    <g transform="matrix(1,0,0,1,-239.482,372.42)">
        <path d="M1262.4,976.957L1299.4,976.957" style="fill:none;stroke:black;stroke-width:4.17px;"/>
        <g transform="matrix(1,0,0,1,-76.3177,36.4626)">
            <text x="1180.18px" y="985.233px" style="font-family:'ArialMT', 'Arial', sans-serif;font-size:125px;">-M</text>
        </g>
    </g>
    <g transform="matrix(1,0,0,1,-239.482,-533.551)">
        <g transform="matrix(0.993085,0,0,0.993085,5.49755,9.46427)">
            <path d="M795.073,1368.75L1283.62,1368.75" style="fill:none;stroke:black;stroke-width:4.2px;"/>
        </g>
        <g transform="matrix(3.06162e-17,-0.5,1,6.12323e-17,-415.292,1639.08)">
            <g transform="matrix(1,0,0,1,1.61182,1.09336)">
                <path d="M540.654,1692.97L502.042,1654.36L540.654,1692.97Z" style="stroke:black;stroke-width:5.27px;"/>
            </g>
            <g transform="matrix(1,0,0,1,1.61182,1.09336)">
                <path d="M576.043,1654.36L540.654,1692.97" style="stroke:black;stroke-width:5.27px;"/>
            </g>
        </g>
        <g transform="matrix(3.06162e-17,0.5,-1,6.12323e-17,2489.13,1098.43)">
            <g transform="matrix(1,0,0,1,1.61182,1.09336)">
                <path d="M540.654,1692.97L502.042,1654.36L540.654,1692.97Z" style="stroke:black;stroke-width:5.27px;"/>
            </g>
            <g transform="matrix(1,0,0,1,1.61182,1.09336)">
                <path d="M576.043,1654.36L540.654,1692.97" style="fill:none;stroke:rgb(3,0,6);stroke-width:5.27px;"/>
            </g>
        </g>
        <g transform="matrix(1,0,0,1,-11.6735,42.4435)">
            <text x="973.385px" y="1306.35px" style="font-family:'ArialMT', 'Arial', sans-serif;font-size:83.333px;">-m•δ</text>
        </g>
    </g>
    <g transform="matrix(1.5158,0,0,1,-900.073,-497.549)">
        <g transform="matrix(0.993085,0,0,0.993085,5.49755,9.46427)">
            <path d="M795.073,1368.75L1283.62,1368.75" style="fill:none;stroke:black;stroke-width:3.27px;"/>
        </g>
        <g transform="matrix(2.0198e-17,0.5,-0.659717,6.12323e-17,1912.67,1098.43)">
            <g transform="matrix(1,0,0,1,1.61182,1.09336)">
                <path d="M540.654,1692.97L502.042,1654.36L540.654,1692.97Z" style="stroke:black;stroke-width:5.27px;"/>
            </g>
            <g transform="matrix(1,0,0,1,1.61182,1.09336)">
                <path d="M576.043,1654.36L540.654,1692.97" style="stroke:black;stroke-width:5.27px;"/>
            </g>
        </g>
        <g transform="matrix(0.659717,0,0,1,202.473,36.7562)">
            <text x="973.385px" y="1306.35px" style="font-family:'ArialMT', 'Arial', sans-serif;font-size:83.333px;">-δ</text>
        </g>
        <g transform="matrix(2.0198e-17,-0.5,0.659717,6.12323e-17,162.641,1639.08)">
            <g transform="matrix(1,0,0,1,1.61182,1.09336)">
                <path d="M540.654,1692.97L502.042,1654.36L540.654,1692.97Z" style="stroke:black;stroke-width:5.27px;"/>
            </g>
            <g transform="matrix(1,0,0,1,1.61182,1.09336)">
                <path d="M576.043,1654.36L540.654,1692.97" style="stroke:black;stroke-width:5.27px;"/>
            </g>
        </g>
    </g>
    <g transform="matrix(1.5158,0,0,1,-161.035,-446.438)">
        <g transform="matrix(0.993085,0,0,0.993085,5.49755,9.46427)">
            <path d="M795.073,1368.75L1283.62,1368.75" style="fill:none;stroke:black;stroke-width:3.27px;"/>
        </g>
        <g transform="matrix(2.0198e-17,0.5,-0.659717,6.12323e-17,1912.67,1098.43)">
            <g transform="matrix(1,0,0,1,1.61182,1.09336)">
                <path d="M540.654,1692.97L502.042,1654.36L540.654,1692.97Z" style="stroke:black;stroke-width:5.27px;"/>
            </g>
            <g transform="matrix(1,0,0,1,1.61182,1.09336)">
                <path d="M576.043,1654.36L540.654,1692.97" style="stroke:black;stroke-width:5.27px;"/>
            </g>
        </g>
        <g transform="matrix(0.659717,0,0,1,538.332,140.56)">
            <text x="973.385px" y="1306.35px" style="font-family:'ArialMT', 'Arial', sans-serif;font-size:83.333px;">δ</text>
        </g>
        <g transform="matrix(2.0198e-17,-0.5,0.659717,6.12323e-17,162.641,1639.08)">
            <g transform="matrix(1,0,0,1,1.61182,1.09336)">
                <path d="M540.654,1692.97L502.042,1654.36L540.654,1692.97Z" style="stroke:black;stroke-width:5.27px;"/>
            </g>
            <g transform="matrix(1,0,0,1,1.61182,1.09336)">
                <path d="M576.043,1654.36L540.654,1692.97" style="stroke:black;stroke-width:5.27px;"/>
            </g>
        </g>
    </g>
    <g transform="matrix(1,0,0,1,249.065,-408.004)">
        <g transform="matrix(0.993085,0,0,0.993085,5.49755,9.46427)">
            <path d="M795.073,1368.75L1283.62,1368.75" style="fill:none;stroke:black;stroke-width:4.2px;"/>
        </g>
        <g transform="matrix(3.06162e-17,-0.5,1,6.12323e-17,-415.292,1639.08)">
            <g transform="matrix(1,0,0,1,1.61182,1.09336)">
                <path d="M540.654,1692.97L502.042,1654.36L540.654,1692.97Z" style="stroke:black;stroke-width:5.27px;"/>
            </g>
            <g transform="matrix(1,0,0,1,1.61182,1.09336)">
                <path d="M576.043,1654.36L540.654,1692.97" style="stroke:black;stroke-width:5.27px;"/>
            </g>
        </g>
        <g transform="matrix(3.06162e-17,0.5,-1,6.12323e-17,2489.13,1098.43)">
            <g transform="matrix(1,0,0,1,1.61182,1.09336)">
                <path d="M540.654,1692.97L502.042,1654.36L540.654,1692.97Z" style="stroke:black;stroke-width:5.27px;"/>
            </g>
            <g transform="matrix(1,0,0,1,1.61182,1.09336)">
                <path d="M576.043,1654.36L540.654,1692.97" style="stroke:black;stroke-width:5.27px;"/>
            </g>
        </g>
        <g transform="matrix(1,0,0,1,1.00584,138.373)">
            <text x="973.385px" y="1306.35px" style="font-family:'ArialMT', 'Arial', sans-serif;font-size:83.333px;">m•δ</text>
        </g>
    </g>
    <g transform="matrix(1,0,0,1,-239.482,-533.551)">
        <path d="M795.073,1429.94L795.073,1369.56" style="fill:none;stroke:rgb(3,0,6);stroke-width:4.17px;stroke-dasharray:8.33,12.5,0,0;"/>
    </g>
    <g transform="matrix(1,0,0,1,732.761,-479.855)">
        <path d="M795.073,1429.94L795.073,1369.56" style="fill:none;stroke:rgb(3,0,6);stroke-width:4.17px;stroke-dasharray:8.33,12.5,0,0;"/>
    </g>
    <g transform="matrix(0.510004,0,0,0.510004,1374.07,192.234)">
        <path d="M795.073,1429.94L795.073,1369.56" style="fill:none;stroke:rgb(3,0,6);stroke-width:8.17px;stroke-dasharray:16.34,24.51,0,0;"/>
    </g>
    <g transform="matrix(0.403772,0,0,0.403772,-19.1534,319.02)">
        <path d="M795.073,1429.94L795.073,1369.56" style="fill:none;stroke:rgb(3,0,6);stroke-width:10.32px;stroke-dasharray:20.64,30.96,0,0;"/>
    </g>
</svg>
