<?xml version="1.0" encoding="utf-8" standalone="no"?>
<!DOCTYPE svg PUBLIC "-//W3C//DTD SVG 1.1//EN"
  "http://www.w3.org/Graphics/SVG/1.1/DTD/svg11.dtd">
<!-- Created with matplotlib (http://matplotlib.org/) -->
<svg height="345.6pt" version="1.1" viewBox="0 0 460.8 345.6" width="460.8pt" xmlns="http://www.w3.org/2000/svg" xmlns:xlink="http://www.w3.org/1999/xlink">
 <defs>
  <style type="text/css">
*{stroke-linecap:butt;stroke-linejoin:round;}
  </style>
 </defs>
 <g id="figure_1">
  <g id="patch_1">
   <path d="M 0 345.6 
L 460.8 345.6 
L 460.8 0 
L 0 0 
z
" style="fill:#ffffff;"/>
  </g>
  <g id="axes_1">
   <g id="patch_2">
    <path d="M 57.6 307.584 
L 414.72 307.584 
L 414.72 41.472 
L 57.6 41.472 
z
" style="fill:#ffffff;"/>
   </g>
   <g id="matplotlib.axis_1">
    <g id="xtick_1">
     <g id="line2d_1">
      <path clip-path="url(#pbb9dc29b6b)" d="M 73.832727 307.584 
L 73.832727 41.472 
" style="fill:none;stroke:#b0b0b0;stroke-linecap:square;stroke-width:0.8;"/>
     </g>
     <g id="line2d_2">
      <defs>
       <path d="M 0 0 
L 0 3.5 
" id="m21e3ec5c1e" style="stroke:#000000;stroke-width:0.8;"/>
      </defs>
      <g>
       <use style="stroke:#000000;stroke-width:0.8;" x="73.832727" xlink:href="#m21e3ec5c1e" y="307.584"/>
      </g>
     </g>
     <g id="text_1">
      <!-- 0 -->
      <defs>
       <path d="M 31.78125 66.40625 
Q 24.171875 66.40625 20.328125 58.90625 
Q 16.5 51.421875 16.5 36.375 
Q 16.5 21.390625 20.328125 13.890625 
Q 24.171875 6.390625 31.78125 6.390625 
Q 39.453125 6.390625 43.28125 13.890625 
Q 47.125 21.390625 47.125 36.375 
Q 47.125 51.421875 43.28125 58.90625 
Q 39.453125 66.40625 31.78125 66.40625 
z
M 31.78125 74.21875 
Q 44.046875 74.21875 50.515625 64.515625 
Q 56.984375 54.828125 56.984375 36.375 
Q 56.984375 17.96875 50.515625 8.265625 
Q 44.046875 -1.421875 31.78125 -1.421875 
Q 19.53125 -1.421875 13.0625 8.265625 
Q 6.59375 17.96875 6.59375 36.375 
Q 6.59375 54.828125 13.0625 64.515625 
Q 19.53125 74.21875 31.78125 74.21875 
z
" id="DejaVuSans-30"/>
      </defs>
      <g transform="translate(70.651477 322.182437)scale(0.1 -0.1)">
       <use xlink:href="#DejaVuSans-30"/>
      </g>
     </g>
    </g>
    <g id="xtick_2">
     <g id="line2d_3">
      <path clip-path="url(#pbb9dc29b6b)" d="M 131.293709 307.584 
L 131.293709 41.472 
" style="fill:none;stroke:#b0b0b0;stroke-linecap:square;stroke-width:0.8;"/>
     </g>
     <g id="line2d_4">
      <g>
       <use style="stroke:#000000;stroke-width:0.8;" x="131.293709" xlink:href="#m21e3ec5c1e" y="307.584"/>
      </g>
     </g>
     <g id="text_2">
      <!-- 20 -->
      <defs>
       <path d="M 19.1875 8.296875 
L 53.609375 8.296875 
L 53.609375 0 
L 7.328125 0 
L 7.328125 8.296875 
Q 12.9375 14.109375 22.625 23.890625 
Q 32.328125 33.6875 34.8125 36.53125 
Q 39.546875 41.84375 41.421875 45.53125 
Q 43.3125 49.21875 43.3125 52.78125 
Q 43.3125 58.59375 39.234375 62.25 
Q 35.15625 65.921875 28.609375 65.921875 
Q 23.96875 65.921875 18.8125 64.3125 
Q 13.671875 62.703125 7.8125 59.421875 
L 7.8125 69.390625 
Q 13.765625 71.78125 18.9375 73 
Q 24.125 74.21875 28.421875 74.21875 
Q 39.75 74.21875 46.484375 68.546875 
Q 53.21875 62.890625 53.21875 53.421875 
Q 53.21875 48.921875 51.53125 44.890625 
Q 49.859375 40.875 45.40625 35.40625 
Q 44.1875 33.984375 37.640625 27.21875 
Q 31.109375 20.453125 19.1875 8.296875 
z
" id="DejaVuSans-32"/>
      </defs>
      <g transform="translate(124.931209 322.182437)scale(0.1 -0.1)">
       <use xlink:href="#DejaVuSans-32"/>
       <use x="63.623047" xlink:href="#DejaVuSans-30"/>
      </g>
     </g>
    </g>
    <g id="xtick_3">
     <g id="line2d_5">
      <path clip-path="url(#pbb9dc29b6b)" d="M 188.75469 307.584 
L 188.75469 41.472 
" style="fill:none;stroke:#b0b0b0;stroke-linecap:square;stroke-width:0.8;"/>
     </g>
     <g id="line2d_6">
      <g>
       <use style="stroke:#000000;stroke-width:0.8;" x="188.75469" xlink:href="#m21e3ec5c1e" y="307.584"/>
      </g>
     </g>
     <g id="text_3">
      <!-- 40 -->
      <defs>
       <path d="M 37.796875 64.3125 
L 12.890625 25.390625 
L 37.796875 25.390625 
z
M 35.203125 72.90625 
L 47.609375 72.90625 
L 47.609375 25.390625 
L 58.015625 25.390625 
L 58.015625 17.1875 
L 47.609375 17.1875 
L 47.609375 0 
L 37.796875 0 
L 37.796875 17.1875 
L 4.890625 17.1875 
L 4.890625 26.703125 
z
" id="DejaVuSans-34"/>
      </defs>
      <g transform="translate(182.39219 322.182437)scale(0.1 -0.1)">
       <use xlink:href="#DejaVuSans-34"/>
       <use x="63.623047" xlink:href="#DejaVuSans-30"/>
      </g>
     </g>
    </g>
    <g id="xtick_4">
     <g id="line2d_7">
      <path clip-path="url(#pbb9dc29b6b)" d="M 246.215672 307.584 
L 246.215672 41.472 
" style="fill:none;stroke:#b0b0b0;stroke-linecap:square;stroke-width:0.8;"/>
     </g>
     <g id="line2d_8">
      <g>
       <use style="stroke:#000000;stroke-width:0.8;" x="246.215672" xlink:href="#m21e3ec5c1e" y="307.584"/>
      </g>
     </g>
     <g id="text_4">
      <!-- 60 -->
      <defs>
       <path d="M 33.015625 40.375 
Q 26.375 40.375 22.484375 35.828125 
Q 18.609375 31.296875 18.609375 23.390625 
Q 18.609375 15.53125 22.484375 10.953125 
Q 26.375 6.390625 33.015625 6.390625 
Q 39.65625 6.390625 43.53125 10.953125 
Q 47.40625 15.53125 47.40625 23.390625 
Q 47.40625 31.296875 43.53125 35.828125 
Q 39.65625 40.375 33.015625 40.375 
z
M 52.59375 71.296875 
L 52.59375 62.3125 
Q 48.875 64.0625 45.09375 64.984375 
Q 41.3125 65.921875 37.59375 65.921875 
Q 27.828125 65.921875 22.671875 59.328125 
Q 17.53125 52.734375 16.796875 39.40625 
Q 19.671875 43.65625 24.015625 45.921875 
Q 28.375 48.1875 33.59375 48.1875 
Q 44.578125 48.1875 50.953125 41.515625 
Q 57.328125 34.859375 57.328125 23.390625 
Q 57.328125 12.15625 50.6875 5.359375 
Q 44.046875 -1.421875 33.015625 -1.421875 
Q 20.359375 -1.421875 13.671875 8.265625 
Q 6.984375 17.96875 6.984375 36.375 
Q 6.984375 53.65625 15.1875 63.9375 
Q 23.390625 74.21875 37.203125 74.21875 
Q 40.921875 74.21875 44.703125 73.484375 
Q 48.484375 72.75 52.59375 71.296875 
z
" id="DejaVuSans-36"/>
      </defs>
      <g transform="translate(239.853172 322.182437)scale(0.1 -0.1)">
       <use xlink:href="#DejaVuSans-36"/>
       <use x="63.623047" xlink:href="#DejaVuSans-30"/>
      </g>
     </g>
    </g>
    <g id="xtick_5">
     <g id="line2d_9">
      <path clip-path="url(#pbb9dc29b6b)" d="M 303.676653 307.584 
L 303.676653 41.472 
" style="fill:none;stroke:#b0b0b0;stroke-linecap:square;stroke-width:0.8;"/>
     </g>
     <g id="line2d_10">
      <g>
       <use style="stroke:#000000;stroke-width:0.8;" x="303.676653" xlink:href="#m21e3ec5c1e" y="307.584"/>
      </g>
     </g>
     <g id="text_5">
      <!-- 80 -->
      <defs>
       <path d="M 31.78125 34.625 
Q 24.75 34.625 20.71875 30.859375 
Q 16.703125 27.09375 16.703125 20.515625 
Q 16.703125 13.921875 20.71875 10.15625 
Q 24.75 6.390625 31.78125 6.390625 
Q 38.8125 6.390625 42.859375 10.171875 
Q 46.921875 13.96875 46.921875 20.515625 
Q 46.921875 27.09375 42.890625 30.859375 
Q 38.875 34.625 31.78125 34.625 
z
M 21.921875 38.8125 
Q 15.578125 40.375 12.03125 44.71875 
Q 8.5 49.078125 8.5 55.328125 
Q 8.5 64.0625 14.71875 69.140625 
Q 20.953125 74.21875 31.78125 74.21875 
Q 42.671875 74.21875 48.875 69.140625 
Q 55.078125 64.0625 55.078125 55.328125 
Q 55.078125 49.078125 51.53125 44.71875 
Q 48 40.375 41.703125 38.8125 
Q 48.828125 37.15625 52.796875 32.3125 
Q 56.78125 27.484375 56.78125 20.515625 
Q 56.78125 9.90625 50.3125 4.234375 
Q 43.84375 -1.421875 31.78125 -1.421875 
Q 19.734375 -1.421875 13.25 4.234375 
Q 6.78125 9.90625 6.78125 20.515625 
Q 6.78125 27.484375 10.78125 32.3125 
Q 14.796875 37.15625 21.921875 38.8125 
z
M 18.3125 54.390625 
Q 18.3125 48.734375 21.84375 45.5625 
Q 25.390625 42.390625 31.78125 42.390625 
Q 38.140625 42.390625 41.71875 45.5625 
Q 45.3125 48.734375 45.3125 54.390625 
Q 45.3125 60.0625 41.71875 63.234375 
Q 38.140625 66.40625 31.78125 66.40625 
Q 25.390625 66.40625 21.84375 63.234375 
Q 18.3125 60.0625 18.3125 54.390625 
z
" id="DejaVuSans-38"/>
      </defs>
      <g transform="translate(297.314153 322.182437)scale(0.1 -0.1)">
       <use xlink:href="#DejaVuSans-38"/>
       <use x="63.623047" xlink:href="#DejaVuSans-30"/>
      </g>
     </g>
    </g>
    <g id="xtick_6">
     <g id="line2d_11">
      <path clip-path="url(#pbb9dc29b6b)" d="M 361.137635 307.584 
L 361.137635 41.472 
" style="fill:none;stroke:#b0b0b0;stroke-linecap:square;stroke-width:0.8;"/>
     </g>
     <g id="line2d_12">
      <g>
       <use style="stroke:#000000;stroke-width:0.8;" x="361.137635" xlink:href="#m21e3ec5c1e" y="307.584"/>
      </g>
     </g>
     <g id="text_6">
      <!-- 100 -->
      <defs>
       <path d="M 12.40625 8.296875 
L 28.515625 8.296875 
L 28.515625 63.921875 
L 10.984375 60.40625 
L 10.984375 69.390625 
L 28.421875 72.90625 
L 38.28125 72.90625 
L 38.28125 8.296875 
L 54.390625 8.296875 
L 54.390625 0 
L 12.40625 0 
z
" id="DejaVuSans-31"/>
      </defs>
      <g transform="translate(351.593885 322.182437)scale(0.1 -0.1)">
       <use xlink:href="#DejaVuSans-31"/>
       <use x="63.623047" xlink:href="#DejaVuSans-30"/>
       <use x="127.246094" xlink:href="#DejaVuSans-30"/>
      </g>
     </g>
    </g>
    <g id="text_7">
     <!-- čas (s) -->
     <defs>
      <path d="M 48.78125 52.59375 
L 48.78125 44.1875 
Q 44.96875 46.296875 41.140625 47.34375 
Q 37.3125 48.390625 33.40625 48.390625 
Q 24.65625 48.390625 19.8125 42.84375 
Q 14.984375 37.3125 14.984375 27.296875 
Q 14.984375 17.28125 19.8125 11.734375 
Q 24.65625 6.203125 33.40625 6.203125 
Q 37.3125 6.203125 41.140625 7.25 
Q 44.96875 8.296875 48.78125 10.40625 
L 48.78125 2.09375 
Q 45.015625 0.34375 40.984375 -0.53125 
Q 36.96875 -1.421875 32.421875 -1.421875 
Q 20.0625 -1.421875 12.78125 6.34375 
Q 5.515625 14.109375 5.515625 27.296875 
Q 5.515625 40.671875 12.859375 48.328125 
Q 20.21875 56 33.015625 56 
Q 37.15625 56 41.109375 55.140625 
Q 45.0625 54.296875 48.78125 52.59375 
z
M 28.078125 61.625 
L 16.109375 79.984375 
L 22.90625 79.984375 
L 31.6875 68.015625 
L 40.484375 79.984375 
L 47.265625 79.984375 
L 35.296875 61.625 
z
" id="DejaVuSans-10d"/>
      <path d="M 34.28125 27.484375 
Q 23.390625 27.484375 19.1875 25 
Q 14.984375 22.515625 14.984375 16.5 
Q 14.984375 11.71875 18.140625 8.90625 
Q 21.296875 6.109375 26.703125 6.109375 
Q 34.1875 6.109375 38.703125 11.40625 
Q 43.21875 16.703125 43.21875 25.484375 
L 43.21875 27.484375 
z
M 52.203125 31.203125 
L 52.203125 0 
L 43.21875 0 
L 43.21875 8.296875 
Q 40.140625 3.328125 35.546875 0.953125 
Q 30.953125 -1.421875 24.3125 -1.421875 
Q 15.921875 -1.421875 10.953125 3.296875 
Q 6 8.015625 6 15.921875 
Q 6 25.140625 12.171875 29.828125 
Q 18.359375 34.515625 30.609375 34.515625 
L 43.21875 34.515625 
L 43.21875 35.40625 
Q 43.21875 41.609375 39.140625 45 
Q 35.0625 48.390625 27.6875 48.390625 
Q 23 48.390625 18.546875 47.265625 
Q 14.109375 46.140625 10.015625 43.890625 
L 10.015625 52.203125 
Q 14.9375 54.109375 19.578125 55.046875 
Q 24.21875 56 28.609375 56 
Q 40.484375 56 46.34375 49.84375 
Q 52.203125 43.703125 52.203125 31.203125 
z
" id="DejaVuSans-61"/>
      <path d="M 44.28125 53.078125 
L 44.28125 44.578125 
Q 40.484375 46.53125 36.375 47.5 
Q 32.28125 48.484375 27.875 48.484375 
Q 21.1875 48.484375 17.84375 46.4375 
Q 14.5 44.390625 14.5 40.28125 
Q 14.5 37.15625 16.890625 35.375 
Q 19.28125 33.59375 26.515625 31.984375 
L 29.59375 31.296875 
Q 39.15625 29.25 43.1875 25.515625 
Q 47.21875 21.78125 47.21875 15.09375 
Q 47.21875 7.46875 41.1875 3.015625 
Q 35.15625 -1.421875 24.609375 -1.421875 
Q 20.21875 -1.421875 15.453125 -0.5625 
Q 10.6875 0.296875 5.421875 2 
L 5.421875 11.28125 
Q 10.40625 8.6875 15.234375 7.390625 
Q 20.0625 6.109375 24.8125 6.109375 
Q 31.15625 6.109375 34.5625 8.28125 
Q 37.984375 10.453125 37.984375 14.40625 
Q 37.984375 18.0625 35.515625 20.015625 
Q 33.0625 21.96875 24.703125 23.78125 
L 21.578125 24.515625 
Q 13.234375 26.265625 9.515625 29.90625 
Q 5.8125 33.546875 5.8125 39.890625 
Q 5.8125 47.609375 11.28125 51.796875 
Q 16.75 56 26.8125 56 
Q 31.78125 56 36.171875 55.265625 
Q 40.578125 54.546875 44.28125 53.078125 
z
" id="DejaVuSans-73"/>
      <path id="DejaVuSans-20"/>
      <path d="M 31 75.875 
Q 24.46875 64.65625 21.28125 53.65625 
Q 18.109375 42.671875 18.109375 31.390625 
Q 18.109375 20.125 21.3125 9.0625 
Q 24.515625 -2 31 -13.1875 
L 23.1875 -13.1875 
Q 15.875 -1.703125 12.234375 9.375 
Q 8.59375 20.453125 8.59375 31.390625 
Q 8.59375 42.28125 12.203125 53.3125 
Q 15.828125 64.359375 23.1875 75.875 
z
" id="DejaVuSans-28"/>
      <path d="M 8.015625 75.875 
L 15.828125 75.875 
Q 23.140625 64.359375 26.78125 53.3125 
Q 30.421875 42.28125 30.421875 31.390625 
Q 30.421875 20.453125 26.78125 9.375 
Q 23.140625 -1.703125 15.828125 -13.1875 
L 8.015625 -13.1875 
Q 14.5 -2 17.703125 9.0625 
Q 20.90625 20.125 20.90625 31.390625 
Q 20.90625 42.671875 17.703125 53.65625 
Q 14.5 64.65625 8.015625 75.875 
z
" id="DejaVuSans-29"/>
     </defs>
     <g transform="translate(219.646719 335.860562)scale(0.1 -0.1)">
      <use xlink:href="#DejaVuSans-10d"/>
      <use x="54.980469" xlink:href="#DejaVuSans-61"/>
      <use x="116.259766" xlink:href="#DejaVuSans-73"/>
      <use x="168.359375" xlink:href="#DejaVuSans-20"/>
      <use x="200.146484" xlink:href="#DejaVuSans-28"/>
      <use x="239.160156" xlink:href="#DejaVuSans-73"/>
      <use x="291.259766" xlink:href="#DejaVuSans-29"/>
     </g>
    </g>
   </g>
   <g id="matplotlib.axis_2">
    <g id="ytick_1">
     <g id="line2d_13">
      <path clip-path="url(#pbb9dc29b6b)" d="M 57.6 292.402286 
L 414.72 292.402286 
" style="fill:none;stroke:#b0b0b0;stroke-linecap:square;stroke-width:0.8;"/>
     </g>
     <g id="line2d_14">
      <defs>
       <path d="M 0 0 
L -3.5 0 
" id="m3f2490624b" style="stroke:#000000;stroke-width:0.8;"/>
      </defs>
      <g>
       <use style="stroke:#000000;stroke-width:0.8;" x="57.6" xlink:href="#m3f2490624b" y="292.402286"/>
      </g>
     </g>
     <g id="text_8">
      <!-- 15 -->
      <defs>
       <path d="M 10.796875 72.90625 
L 49.515625 72.90625 
L 49.515625 64.59375 
L 19.828125 64.59375 
L 19.828125 46.734375 
Q 21.96875 47.46875 24.109375 47.828125 
Q 26.265625 48.1875 28.421875 48.1875 
Q 40.625 48.1875 47.75 41.5 
Q 54.890625 34.8125 54.890625 23.390625 
Q 54.890625 11.625 47.5625 5.09375 
Q 40.234375 -1.421875 26.90625 -1.421875 
Q 22.3125 -1.421875 17.546875 -0.640625 
Q 12.796875 0.140625 7.71875 1.703125 
L 7.71875 11.625 
Q 12.109375 9.234375 16.796875 8.0625 
Q 21.484375 6.890625 26.703125 6.890625 
Q 35.15625 6.890625 40.078125 11.328125 
Q 45.015625 15.765625 45.015625 23.390625 
Q 45.015625 31 40.078125 35.4375 
Q 35.15625 39.890625 26.703125 39.890625 
Q 22.75 39.890625 18.8125 39.015625 
Q 14.890625 38.140625 10.796875 36.28125 
z
" id="DejaVuSans-35"/>
      </defs>
      <g transform="translate(37.875 296.201504)scale(0.1 -0.1)">
       <use xlink:href="#DejaVuSans-31"/>
       <use x="63.623047" xlink:href="#DejaVuSans-35"/>
      </g>
     </g>
    </g>
    <g id="ytick_2">
     <g id="line2d_15">
      <path clip-path="url(#pbb9dc29b6b)" d="M 57.6 261.545143 
L 414.72 261.545143 
" style="fill:none;stroke:#b0b0b0;stroke-linecap:square;stroke-width:0.8;"/>
     </g>
     <g id="line2d_16">
      <g>
       <use style="stroke:#000000;stroke-width:0.8;" x="57.6" xlink:href="#m3f2490624b" y="261.545143"/>
      </g>
     </g>
     <g id="text_9">
      <!-- 20 -->
      <g transform="translate(37.875 265.344362)scale(0.1 -0.1)">
       <use xlink:href="#DejaVuSans-32"/>
       <use x="63.623047" xlink:href="#DejaVuSans-30"/>
      </g>
     </g>
    </g>
    <g id="ytick_3">
     <g id="line2d_17">
      <path clip-path="url(#pbb9dc29b6b)" d="M 57.6 230.688 
L 414.72 230.688 
" style="fill:none;stroke:#b0b0b0;stroke-linecap:square;stroke-width:0.8;"/>
     </g>
     <g id="line2d_18">
      <g>
       <use style="stroke:#000000;stroke-width:0.8;" x="57.6" xlink:href="#m3f2490624b" y="230.688"/>
      </g>
     </g>
     <g id="text_10">
      <!-- 25 -->
      <g transform="translate(37.875 234.487219)scale(0.1 -0.1)">
       <use xlink:href="#DejaVuSans-32"/>
       <use x="63.623047" xlink:href="#DejaVuSans-35"/>
      </g>
     </g>
    </g>
    <g id="ytick_4">
     <g id="line2d_19">
      <path clip-path="url(#pbb9dc29b6b)" d="M 57.6 199.830857 
L 414.72 199.830857 
" style="fill:none;stroke:#b0b0b0;stroke-linecap:square;stroke-width:0.8;"/>
     </g>
     <g id="line2d_20">
      <g>
       <use style="stroke:#000000;stroke-width:0.8;" x="57.6" xlink:href="#m3f2490624b" y="199.830857"/>
      </g>
     </g>
     <g id="text_11">
      <!-- 30 -->
      <defs>
       <path d="M 40.578125 39.3125 
Q 47.65625 37.796875 51.625 33 
Q 55.609375 28.21875 55.609375 21.1875 
Q 55.609375 10.40625 48.1875 4.484375 
Q 40.765625 -1.421875 27.09375 -1.421875 
Q 22.515625 -1.421875 17.65625 -0.515625 
Q 12.796875 0.390625 7.625 2.203125 
L 7.625 11.71875 
Q 11.71875 9.328125 16.59375 8.109375 
Q 21.484375 6.890625 26.8125 6.890625 
Q 36.078125 6.890625 40.9375 10.546875 
Q 45.796875 14.203125 45.796875 21.1875 
Q 45.796875 27.640625 41.28125 31.265625 
Q 36.765625 34.90625 28.71875 34.90625 
L 20.21875 34.90625 
L 20.21875 43.015625 
L 29.109375 43.015625 
Q 36.375 43.015625 40.234375 45.921875 
Q 44.09375 48.828125 44.09375 54.296875 
Q 44.09375 59.90625 40.109375 62.90625 
Q 36.140625 65.921875 28.71875 65.921875 
Q 24.65625 65.921875 20.015625 65.03125 
Q 15.375 64.15625 9.8125 62.3125 
L 9.8125 71.09375 
Q 15.4375 72.65625 20.34375 73.4375 
Q 25.25 74.21875 29.59375 74.21875 
Q 40.828125 74.21875 47.359375 69.109375 
Q 53.90625 64.015625 53.90625 55.328125 
Q 53.90625 49.265625 50.4375 45.09375 
Q 46.96875 40.921875 40.578125 39.3125 
z
" id="DejaVuSans-33"/>
      </defs>
      <g transform="translate(37.875 203.630076)scale(0.1 -0.1)">
       <use xlink:href="#DejaVuSans-33"/>
       <use x="63.623047" xlink:href="#DejaVuSans-30"/>
      </g>
     </g>
    </g>
    <g id="ytick_5">
     <g id="line2d_21">
      <path clip-path="url(#pbb9dc29b6b)" d="M 57.6 168.973714 
L 414.72 168.973714 
" style="fill:none;stroke:#b0b0b0;stroke-linecap:square;stroke-width:0.8;"/>
     </g>
     <g id="line2d_22">
      <g>
       <use style="stroke:#000000;stroke-width:0.8;" x="57.6" xlink:href="#m3f2490624b" y="168.973714"/>
      </g>
     </g>
     <g id="text_12">
      <!-- 35 -->
      <g transform="translate(37.875 172.772933)scale(0.1 -0.1)">
       <use xlink:href="#DejaVuSans-33"/>
       <use x="63.623047" xlink:href="#DejaVuSans-35"/>
      </g>
     </g>
    </g>
    <g id="ytick_6">
     <g id="line2d_23">
      <path clip-path="url(#pbb9dc29b6b)" d="M 57.6 138.116571 
L 414.72 138.116571 
" style="fill:none;stroke:#b0b0b0;stroke-linecap:square;stroke-width:0.8;"/>
     </g>
     <g id="line2d_24">
      <g>
       <use style="stroke:#000000;stroke-width:0.8;" x="57.6" xlink:href="#m3f2490624b" y="138.116571"/>
      </g>
     </g>
     <g id="text_13">
      <!-- 40 -->
      <g transform="translate(37.875 141.91579)scale(0.1 -0.1)">
       <use xlink:href="#DejaVuSans-34"/>
       <use x="63.623047" xlink:href="#DejaVuSans-30"/>
      </g>
     </g>
    </g>
    <g id="ytick_7">
     <g id="line2d_25">
      <path clip-path="url(#pbb9dc29b6b)" d="M 57.6 107.259429 
L 414.72 107.259429 
" style="fill:none;stroke:#b0b0b0;stroke-linecap:square;stroke-width:0.8;"/>
     </g>
     <g id="line2d_26">
      <g>
       <use style="stroke:#000000;stroke-width:0.8;" x="57.6" xlink:href="#m3f2490624b" y="107.259429"/>
      </g>
     </g>
     <g id="text_14">
      <!-- 45 -->
      <g transform="translate(37.875 111.058647)scale(0.1 -0.1)">
       <use xlink:href="#DejaVuSans-34"/>
       <use x="63.623047" xlink:href="#DejaVuSans-35"/>
      </g>
     </g>
    </g>
    <g id="ytick_8">
     <g id="line2d_27">
      <path clip-path="url(#pbb9dc29b6b)" d="M 57.6 76.402286 
L 414.72 76.402286 
" style="fill:none;stroke:#b0b0b0;stroke-linecap:square;stroke-width:0.8;"/>
     </g>
     <g id="line2d_28">
      <g>
       <use style="stroke:#000000;stroke-width:0.8;" x="57.6" xlink:href="#m3f2490624b" y="76.402286"/>
      </g>
     </g>
     <g id="text_15">
      <!-- 50 -->
      <g transform="translate(37.875 80.201504)scale(0.1 -0.1)">
       <use xlink:href="#DejaVuSans-35"/>
       <use x="63.623047" xlink:href="#DejaVuSans-30"/>
      </g>
     </g>
    </g>
    <g id="ytick_9">
     <g id="line2d_29">
      <path clip-path="url(#pbb9dc29b6b)" d="M 57.6 45.545143 
L 414.72 45.545143 
" style="fill:none;stroke:#b0b0b0;stroke-linecap:square;stroke-width:0.8;"/>
     </g>
     <g id="line2d_30">
      <g>
       <use style="stroke:#000000;stroke-width:0.8;" x="57.6" xlink:href="#m3f2490624b" y="45.545143"/>
      </g>
     </g>
     <g id="text_16">
      <!-- 55 -->
      <g transform="translate(37.875 49.344362)scale(0.1 -0.1)">
       <use xlink:href="#DejaVuSans-35"/>
       <use x="63.623047" xlink:href="#DejaVuSans-35"/>
      </g>
     </g>
    </g>
    <g id="text_17">
     <!-- teplota (°C) -->
     <defs>
      <path d="M 18.3125 70.21875 
L 18.3125 54.6875 
L 36.8125 54.6875 
L 36.8125 47.703125 
L 18.3125 47.703125 
L 18.3125 18.015625 
Q 18.3125 11.328125 20.140625 9.421875 
Q 21.96875 7.515625 27.59375 7.515625 
L 36.8125 7.515625 
L 36.8125 0 
L 27.59375 0 
Q 17.1875 0 13.234375 3.875 
Q 9.28125 7.765625 9.28125 18.015625 
L 9.28125 47.703125 
L 2.6875 47.703125 
L 2.6875 54.6875 
L 9.28125 54.6875 
L 9.28125 70.21875 
z
" id="DejaVuSans-74"/>
      <path d="M 56.203125 29.59375 
L 56.203125 25.203125 
L 14.890625 25.203125 
Q 15.484375 15.921875 20.484375 11.0625 
Q 25.484375 6.203125 34.421875 6.203125 
Q 39.59375 6.203125 44.453125 7.46875 
Q 49.3125 8.734375 54.109375 11.28125 
L 54.109375 2.78125 
Q 49.265625 0.734375 44.1875 -0.34375 
Q 39.109375 -1.421875 33.890625 -1.421875 
Q 20.796875 -1.421875 13.15625 6.1875 
Q 5.515625 13.8125 5.515625 26.8125 
Q 5.515625 40.234375 12.765625 48.109375 
Q 20.015625 56 32.328125 56 
Q 43.359375 56 49.78125 48.890625 
Q 56.203125 41.796875 56.203125 29.59375 
z
M 47.21875 32.234375 
Q 47.125 39.59375 43.09375 43.984375 
Q 39.0625 48.390625 32.421875 48.390625 
Q 24.90625 48.390625 20.390625 44.140625 
Q 15.875 39.890625 15.1875 32.171875 
z
" id="DejaVuSans-65"/>
      <path d="M 18.109375 8.203125 
L 18.109375 -20.796875 
L 9.078125 -20.796875 
L 9.078125 54.6875 
L 18.109375 54.6875 
L 18.109375 46.390625 
Q 20.953125 51.265625 25.265625 53.625 
Q 29.59375 56 35.59375 56 
Q 45.5625 56 51.78125 48.09375 
Q 58.015625 40.1875 58.015625 27.296875 
Q 58.015625 14.40625 51.78125 6.484375 
Q 45.5625 -1.421875 35.59375 -1.421875 
Q 29.59375 -1.421875 25.265625 0.953125 
Q 20.953125 3.328125 18.109375 8.203125 
z
M 48.6875 27.296875 
Q 48.6875 37.203125 44.609375 42.84375 
Q 40.53125 48.484375 33.40625 48.484375 
Q 26.265625 48.484375 22.1875 42.84375 
Q 18.109375 37.203125 18.109375 27.296875 
Q 18.109375 17.390625 22.1875 11.75 
Q 26.265625 6.109375 33.40625 6.109375 
Q 40.53125 6.109375 44.609375 11.75 
Q 48.6875 17.390625 48.6875 27.296875 
z
" id="DejaVuSans-70"/>
      <path d="M 9.421875 75.984375 
L 18.40625 75.984375 
L 18.40625 0 
L 9.421875 0 
z
" id="DejaVuSans-6c"/>
      <path d="M 30.609375 48.390625 
Q 23.390625 48.390625 19.1875 42.75 
Q 14.984375 37.109375 14.984375 27.296875 
Q 14.984375 17.484375 19.15625 11.84375 
Q 23.34375 6.203125 30.609375 6.203125 
Q 37.796875 6.203125 41.984375 11.859375 
Q 46.1875 17.53125 46.1875 27.296875 
Q 46.1875 37.015625 41.984375 42.703125 
Q 37.796875 48.390625 30.609375 48.390625 
z
M 30.609375 56 
Q 42.328125 56 49.015625 48.375 
Q 55.71875 40.765625 55.71875 27.296875 
Q 55.71875 13.875 49.015625 6.21875 
Q 42.328125 -1.421875 30.609375 -1.421875 
Q 18.84375 -1.421875 12.171875 6.21875 
Q 5.515625 13.875 5.515625 27.296875 
Q 5.515625 40.765625 12.171875 48.375 
Q 18.84375 56 30.609375 56 
z
" id="DejaVuSans-6f"/>
      <path d="M 25 67.921875 
Q 21.09375 67.921875 18.40625 65.203125 
Q 15.71875 62.5 15.71875 58.59375 
Q 15.71875 54.734375 18.40625 52.078125 
Q 21.09375 49.421875 25 49.421875 
Q 28.90625 49.421875 31.59375 52.078125 
Q 34.28125 54.734375 34.28125 58.59375 
Q 34.28125 62.453125 31.5625 65.1875 
Q 28.859375 67.921875 25 67.921875 
z
M 25 74.21875 
Q 28.125 74.21875 31 73.015625 
Q 33.890625 71.828125 35.984375 69.578125 
Q 38.234375 67.390625 39.359375 64.59375 
Q 40.484375 61.8125 40.484375 58.59375 
Q 40.484375 52.15625 35.96875 47.6875 
Q 31.453125 43.21875 24.90625 43.21875 
Q 18.3125 43.21875 13.90625 47.609375 
Q 9.515625 52 9.515625 58.59375 
Q 9.515625 65.140625 14 69.671875 
Q 18.5 74.21875 25 74.21875 
z
" id="DejaVuSans-b0"/>
      <path d="M 64.40625 67.28125 
L 64.40625 56.890625 
Q 59.421875 61.53125 53.78125 63.8125 
Q 48.140625 66.109375 41.796875 66.109375 
Q 29.296875 66.109375 22.65625 58.46875 
Q 16.015625 50.828125 16.015625 36.375 
Q 16.015625 21.96875 22.65625 14.328125 
Q 29.296875 6.6875 41.796875 6.6875 
Q 48.140625 6.6875 53.78125 8.984375 
Q 59.421875 11.28125 64.40625 15.921875 
L 64.40625 5.609375 
Q 59.234375 2.09375 53.4375 0.328125 
Q 47.65625 -1.421875 41.21875 -1.421875 
Q 24.65625 -1.421875 15.125 8.703125 
Q 5.609375 18.84375 5.609375 36.375 
Q 5.609375 53.953125 15.125 64.078125 
Q 24.65625 74.21875 41.21875 74.21875 
Q 47.75 74.21875 53.53125 72.484375 
Q 59.328125 70.75 64.40625 67.28125 
z
" id="DejaVuSans-43"/>
     </defs>
     <g transform="translate(31.795312 203.693625)rotate(-90)scale(0.1 -0.1)">
      <use xlink:href="#DejaVuSans-74"/>
      <use x="39.208984" xlink:href="#DejaVuSans-65"/>
      <use x="100.732422" xlink:href="#DejaVuSans-70"/>
      <use x="164.208984" xlink:href="#DejaVuSans-6c"/>
      <use x="191.992188" xlink:href="#DejaVuSans-6f"/>
      <use x="253.173828" xlink:href="#DejaVuSans-74"/>
      <use x="292.382812" xlink:href="#DejaVuSans-61"/>
      <use x="353.662109" xlink:href="#DejaVuSans-20"/>
      <use x="385.449219" xlink:href="#DejaVuSans-28"/>
      <use x="424.462891" xlink:href="#DejaVuSans-b0"/>
      <use x="474.462891" xlink:href="#DejaVuSans-43"/>
      <use x="544.287109" xlink:href="#DejaVuSans-29"/>
     </g>
    </g>
   </g>
   <g id="line2d_31">
    <path clip-path="url(#pbb9dc29b6b)" d="M 73.832727 295.488 
L 100.552084 295.488 
L 100.552084 295.488 
L 100.552084 294.870857 
L 100.552084 294.870857 
L 100.839389 294.870857 
L 100.839389 294.870857 
L 100.839389 293.019429 
L 101.126693 292.402286 
L 101.126693 291.168 
L 101.413998 290.550857 
L 101.413998 286.848 
L 101.701303 286.230857 
L 101.701303 286.230857 
L 101.701303 285.613714 
L 101.988608 284.996571 
L 101.988608 282.528 
L 102.275913 281.910857 
L 102.275913 280.676571 
L 102.563218 280.059429 
L 102.563218 277.590857 
L 102.850523 276.973714 
L 102.850523 276.973714 
L 102.850523 275.122286 
L 102.850523 275.122286 
L 103.137828 274.505143 
L 103.137828 271.419429 
L 103.425133 271.419429 
L 103.425133 268.950857 
L 103.712438 268.950857 
L 103.712438 267.716571 
L 103.712438 267.716571 
L 103.999743 267.716571 
L 103.999743 267.716571 
L 103.999743 265.248 
L 104.287047 264.630857 
L 104.287047 262.162286 
L 104.574352 261.545143 
L 104.574352 261.545143 
L 104.574352 259.693714 
L 104.861657 259.693714 
L 104.861657 257.225143 
L 104.861657 257.225143 
L 105.148962 256.608 
L 105.148962 255.990857 
L 105.148962 255.990857 
L 105.436267 252.905143 
L 105.436267 251.053714 
L 105.723572 251.053714 
L 105.723572 251.053714 
L 105.723572 250.436571 
L 105.723572 250.436571 
L 106.010877 250.436571 
L 106.010877 248.585143 
L 106.298182 247.968 
L 106.298182 247.968 
L 106.298182 247.350857 
L 106.298182 247.350857 
L 106.585487 246.733714 
L 106.585487 244.882286 
L 106.585487 244.882286 
L 106.872792 244.882286 
L 106.872792 241.796571 
L 107.160097 241.796571 
L 107.160097 241.796571 
L 107.160097 241.179429 
L 107.160097 241.179429 
L 107.447401 240.562286 
L 107.447401 239.328 
L 107.734706 238.710857 
L 107.734706 238.710857 
L 107.734706 238.093714 
L 108.022011 238.093714 
L 108.022011 236.859429 
L 108.022011 236.859429 
L 108.309316 236.859429 
L 108.309316 235.008 
L 108.309316 235.008 
L 108.596621 235.008 
L 108.596621 233.156571 
L 108.883926 232.539429 
L 108.883926 232.539429 
L 108.883926 231.922286 
L 108.883926 231.922286 
L 109.458536 230.688 
L 109.458536 228.219429 
L 109.745841 227.602286 
L 109.745841 227.602286 
L 110.033146 227.602286 
L 110.033146 225.750857 
L 110.033146 225.750857 
L 110.320451 225.133714 
L 110.320451 224.516571 
L 110.320451 224.516571 
L 110.607755 223.899429 
L 110.607755 222.665143 
L 110.89506 222.665143 
L 110.89506 220.813714 
L 111.182365 220.196571 
L 111.182365 218.962286 
L 111.182365 218.962286 
L 111.46967 218.962286 
L 111.46967 217.728 
L 111.46967 217.728 
L 111.756975 217.728 
L 111.756975 216.493714 
L 111.756975 216.493714 
L 112.04428 216.493714 
L 112.04428 216.493714 
L 112.04428 215.876571 
L 112.04428 215.876571 
L 112.331585 215.259429 
L 112.331585 215.259429 
L 112.331585 214.025143 
L 112.61889 214.025143 
L 112.61889 214.025143 
L 112.61889 213.408 
L 112.61889 213.408 
L 112.906195 212.790857 
L 112.906195 210.939429 
L 113.1935 210.939429 
L 113.1935 210.939429 
L 113.1935 210.322286 
L 113.1935 210.322286 
L 113.480805 210.322286 
L 113.480805 208.470857 
L 113.768109 207.853714 
L 113.768109 207.236571 
L 113.768109 207.236571 
L 114.055414 207.236571 
L 114.055414 207.236571 
L 114.055414 206.002286 
L 114.055414 206.002286 
L 114.630024 204.768 
L 114.630024 203.533714 
L 115.204634 202.299429 
L 115.204634 201.065143 
L 115.204634 201.065143 
L 115.491939 201.065143 
L 115.491939 199.830857 
L 115.491939 199.830857 
L 115.779244 199.830857 
L 115.779244 197.979429 
L 116.066549 197.979429 
L 116.066549 196.745143 
L 116.066549 196.745143 
L 116.353854 196.745143 
L 116.353854 196.745143 
L 116.353854 196.128 
L 116.353854 196.128 
L 116.641158 195.510857 
L 116.641158 195.510857 
L 116.641158 194.276571 
L 116.641158 194.276571 
L 116.928463 194.276571 
L 116.928463 194.276571 
L 116.928463 193.659429 
L 116.928463 193.659429 
L 117.215768 193.042286 
L 117.215768 192.425143 
L 117.215768 192.425143 
L 117.503073 192.425143 
L 117.503073 192.425143 
L 117.503073 191.808 
L 117.503073 191.808 
L 117.790378 191.190857 
L 117.790378 189.339429 
L 117.790378 189.339429 
L 118.077683 189.339429 
L 118.077683 189.339429 
L 118.077683 188.722286 
L 118.077683 188.722286 
L 118.364988 188.722286 
L 118.364988 188.722286 
L 118.364988 187.488 
L 118.364988 187.488 
L 118.652293 186.870857 
L 118.652293 185.636571 
L 118.652293 185.636571 
L 118.939598 185.019429 
L 118.939598 185.019429 
L 118.939598 184.402286 
L 119.226903 184.402286 
L 119.226903 184.402286 
L 119.226903 183.168 
L 119.226903 183.168 
L 119.514208 183.168 
L 119.514208 183.168 
L 119.514208 181.933714 
L 119.801512 181.933714 
L 119.801512 181.316571 
L 119.801512 181.316571 
L 120.088817 181.316571 
L 120.088817 180.082286 
L 120.088817 180.082286 
L 120.376122 180.082286 
L 120.376122 180.082286 
L 120.376122 179.465143 
L 120.376122 179.465143 
L 120.663427 178.848 
L 120.663427 178.848 
L 120.663427 178.230857 
L 120.950732 178.230857 
L 120.950732 176.996571 
L 120.950732 176.996571 
L 121.238037 176.996571 
L 121.238037 175.762286 
L 121.525342 175.762286 
L 121.525342 175.762286 
L 121.525342 174.528 
L 121.812647 174.528 
L 121.812647 174.528 
L 121.812647 172.676571 
L 121.812647 172.676571 
L 122.099952 172.676571 
L 122.099952 172.676571 
L 122.099952 172.059429 
L 122.099952 172.059429 
L 122.387257 171.442286 
L 122.387257 171.442286 
L 122.387257 170.825143 
L 123.249171 168.973714 
L 123.249171 168.973714 
L 123.249171 167.739429 
L 123.249171 167.739429 
L 123.536476 167.739429 
L 123.536476 167.739429 
L 123.536476 167.122286 
L 123.536476 167.122286 
L 123.823781 166.505143 
L 123.823781 166.505143 
L 123.823781 165.888 
L 123.823781 165.888 
L 124.111086 165.888 
L 124.111086 165.888 
L 124.111086 164.036571 
L 124.398391 164.036571 
L 124.398391 164.036571 
L 124.685696 163.419429 
L 124.685696 162.802286 
L 124.685696 162.802286 
L 124.973001 162.185143 
L 124.973001 162.185143 
L 124.973001 160.950857 
L 125.547611 160.950857 
L 125.547611 160.950857 
L 125.547611 159.716571 
L 125.834916 159.716571 
L 125.834916 159.716571 
L 125.834916 159.099429 
L 126.12222 159.099429 
L 126.12222 159.099429 
L 126.12222 157.865143 
L 126.12222 157.865143 
L 126.409525 157.865143 
L 126.409525 157.865143 
L 126.409525 156.630857 
L 126.69683 156.630857 
L 126.69683 156.630857 
L 126.69683 156.013714 
L 126.69683 156.013714 
L 126.984135 155.396571 
L 126.984135 155.396571 
L 127.27144 155.396571 
L 127.27144 154.779429 
L 127.27144 154.779429 
L 127.558745 154.779429 
L 127.558745 154.779429 
L 127.558745 153.545143 
L 127.558745 153.545143 
L 127.84605 152.928 
L 127.84605 152.310857 
L 127.84605 152.310857 
L 128.133355 151.693714 
L 128.133355 151.693714 
L 128.42066 151.693714 
L 128.42066 151.693714 
L 128.42066 150.459429 
L 128.42066 150.459429 
L 128.707965 149.842286 
L 128.707965 149.842286 
L 128.707965 149.225143 
L 128.707965 149.225143 
L 128.99527 149.225143 
L 128.99527 149.225143 
L 129.282574 148.608 
L 129.282574 148.608 
L 129.282574 147.373714 
L 129.569879 147.373714 
L 129.569879 147.373714 
L 129.857184 146.756571 
L 129.857184 146.756571 
L 129.857184 145.522286 
L 130.144489 145.522286 
L 130.144489 144.905143 
L 130.144489 144.905143 
L 130.431794 144.905143 
L 130.431794 144.905143 
L 130.431794 144.288 
L 130.431794 144.288 
L 130.719099 144.288 
L 130.719099 143.670857 
L 130.719099 143.670857 
L 131.006404 143.670857 
L 131.006404 142.436571 
L 131.006404 142.436571 
L 131.581014 142.436571 
L 131.581014 141.202286 
L 131.581014 141.202286 
L 131.868319 140.585143 
L 131.868319 140.585143 
L 131.868319 139.968 
L 132.442928 139.968 
L 132.442928 138.733714 
L 132.442928 138.733714 
L 133.017538 138.733714 
L 133.017538 138.733714 
L 133.017538 137.499429 
L 133.304843 137.499429 
L 133.304843 137.499429 
L 133.304843 136.882286 
L 133.592148 136.265143 
L 133.592148 136.265143 
L 133.592148 135.648 
L 133.592148 135.648 
L 133.879453 135.648 
L 133.879453 135.648 
L 133.879453 135.030857 
L 133.879453 135.030857 
L 134.166758 135.030857 
L 134.166758 135.030857 
L 134.454063 134.413714 
L 134.454063 135.030857 
L 134.454063 135.030857 
L 134.741368 135.030857 
L 134.741368 133.796571 
L 134.741368 133.796571 
L 135.028673 133.796571 
L 135.028673 133.796571 
L 135.028673 131.945143 
L 135.603282 131.945143 
L 135.603282 131.945143 
L 136.177892 130.710857 
L 136.177892 130.710857 
L 136.465197 130.710857 
L 136.465197 130.710857 
L 136.465197 130.093714 
L 136.465197 130.093714 
L 136.752502 130.093714 
L 136.752502 128.859429 
L 136.752502 128.859429 
L 137.039807 128.859429 
L 137.039807 128.859429 
L 137.039807 127.625143 
L 137.614417 127.625143 
L 137.614417 127.625143 
L 137.614417 127.008 
L 137.614417 127.008 
L 137.901722 127.008 
L 137.901722 126.390857 
L 137.901722 126.390857 
L 138.189027 126.390857 
L 138.189027 126.390857 
L 138.189027 125.773714 
L 138.189027 125.773714 
L 138.476331 125.773714 
L 138.476331 125.773714 
L 138.476331 125.156571 
L 138.476331 125.156571 
L 138.763636 125.156571 
L 138.763636 123.922286 
L 138.763636 123.922286 
L 139.050941 123.922286 
L 139.050941 123.922286 
L 139.338246 123.305143 
L 139.338246 123.305143 
L 139.912856 123.305143 
L 139.912856 122.688 
L 139.912856 122.688 
L 140.200161 122.688 
L 140.200161 122.070857 
L 140.200161 122.070857 
L 140.487466 122.070857 
L 140.487466 121.453714 
L 140.487466 121.453714 
L 140.774771 121.453714 
L 140.774771 121.453714 
L 141.062076 120.836571 
L 141.062076 120.219429 
L 141.062076 120.219429 
L 141.349381 120.219429 
L 141.349381 120.219429 
L 141.349381 119.602286 
L 141.349381 119.602286 
L 141.636685 119.602286 
L 141.636685 119.602286 
L 141.636685 118.985143 
L 141.92399 118.985143 
L 141.92399 117.750857 
L 141.92399 117.750857 
L 142.211295 117.750857 
L 142.211295 117.750857 
L 142.211295 117.133714 
L 142.211295 117.133714 
L 142.785905 117.133714 
L 142.785905 117.133714 
L 142.785905 116.516571 
L 143.07321 116.516571 
L 143.07321 116.516571 
L 143.360515 115.899429 
L 143.360515 115.899429 
L 143.360515 115.282286 
L 143.360515 115.282286 
L 143.935125 115.282286 
L 143.935125 115.282286 
L 143.935125 114.665143 
L 143.935125 114.665143 
L 144.22243 114.665143 
L 144.22243 114.665143 
L 144.22243 114.048 
L 144.22243 114.048 
L 144.509735 114.048 
L 144.509735 114.048 
L 144.509735 112.813714 
L 145.084344 112.813714 
L 145.084344 112.813714 
L 145.084344 112.196571 
L 145.084344 112.196571 
L 145.371649 112.196571 
L 145.371649 112.196571 
L 145.371649 111.579429 
L 145.371649 111.579429 
L 145.658954 111.579429 
L 145.658954 111.579429 
L 145.658954 110.962286 
L 145.658954 110.962286 
L 146.233564 110.962286 
L 146.233564 110.962286 
L 146.233564 109.728 
L 146.808174 109.728 
L 146.808174 109.728 
L 146.808174 109.110857 
L 146.808174 109.110857 
L 147.095479 109.110857 
L 147.095479 107.876571 
L 147.957393 107.876571 
L 147.957393 107.259429 
L 147.957393 107.259429 
L 148.244698 107.259429 
L 148.244698 107.259429 
L 148.244698 106.642286 
L 148.819308 106.642286 
L 148.819308 106.642286 
L 148.819308 106.025143 
L 148.819308 106.025143 
L 149.393918 106.025143 
L 149.393918 106.025143 
L 149.393918 105.408 
L 149.681223 105.408 
L 149.681223 105.408 
L 149.681223 106.025143 
L 149.681223 105.408 
L 149.968528 105.408 
L 149.968528 105.408 
L 149.968528 104.790857 
L 149.968528 104.790857 
L 150.543138 104.790857 
L 150.543138 104.790857 
L 150.543138 104.173714 
L 150.543138 104.173714 
L 150.830442 104.173714 
L 150.830442 104.173714 
L 150.830442 103.556571 
L 151.117747 102.939429 
L 151.117747 102.939429 
L 151.692357 102.939429 
L 151.692357 102.939429 
L 151.692357 102.322286 
L 151.692357 102.322286 
L 151.979662 102.322286 
L 151.979662 102.322286 
L 152.266967 101.705143 
L 152.266967 101.705143 
L 152.554272 101.705143 
L 152.554272 101.705143 
L 152.554272 101.088 
L 152.554272 101.088 
L 152.841577 101.088 
L 152.841577 100.470857 
L 152.841577 100.470857 
L 153.128882 100.470857 
L 153.128882 100.470857 
L 153.128882 99.853714 
L 153.416187 99.853714 
L 153.416187 99.853714 
L 153.416187 99.236571 
L 154.278101 99.236571 
L 154.278101 99.236571 
L 154.278101 98.619429 
L 154.278101 98.619429 
L 154.565406 98.619429 
L 154.565406 98.619429 
L 154.565406 98.002286 
L 154.565406 98.002286 
L 155.140016 98.002286 
L 155.140016 98.002286 
L 155.427321 97.385143 
L 155.427321 96.768 
L 155.427321 96.768 
L 156.289236 96.768 
L 156.289236 96.768 
L 156.289236 96.150857 
L 156.289236 96.150857 
L 156.863846 96.150857 
L 156.863846 96.150857 
L 156.863846 95.533714 
L 156.863846 95.533714 
L 157.15115 95.533714 
L 157.15115 95.533714 
L 157.438455 94.916571 
L 157.438455 94.916571 
L 157.72576 94.916571 
L 157.72576 94.916571 
L 157.72576 94.299429 
L 157.72576 94.299429 
L 158.30037 94.299429 
L 158.30037 94.299429 
L 158.30037 93.682286 
L 158.30037 93.682286 
L 158.87498 93.682286 
L 158.87498 93.065143 
L 158.87498 93.065143 
L 159.162285 93.065143 
L 159.162285 93.065143 
L 159.162285 92.448 
L 159.162285 92.448 
L 159.736895 92.448 
L 159.736895 92.448 
L 159.736895 91.830857 
L 159.736895 91.830857 
L 160.0242 91.830857 
L 160.0242 91.830857 
L 160.0242 91.213714 
L 160.598809 91.213714 
L 160.598809 91.213714 
L 160.886114 90.596571 
L 160.886114 90.596571 
L 161.173419 90.596571 
L 161.173419 90.596571 
L 161.173419 89.979429 
L 161.748029 89.979429 
L 161.748029 89.979429 
L 161.748029 89.362286 
L 161.748029 89.362286 
L 162.035334 89.362286 
L 162.035334 89.362286 
L 162.035334 88.745143 
L 162.897249 88.745143 
L 162.897249 88.745143 
L 163.184553 88.128 
L 163.184553 88.128 
L 164.046468 88.128 
L 164.046468 88.128 
L 164.046468 87.510857 
L 164.046468 87.510857 
L 164.333773 87.510857 
L 164.333773 87.510857 
L 164.621078 86.893714 
L 164.621078 86.893714 
L 165.195688 86.893714 
L 165.195688 86.276571 
L 165.195688 86.276571 
L 165.770298 86.276571 
L 165.770298 85.659429 
L 165.770298 85.659429 
L 166.344907 85.659429 
L 166.344907 85.659429 
L 166.344907 85.042286 
L 166.344907 85.042286 
L 166.632212 85.042286 
L 166.632212 84.425143 
L 166.632212 84.425143 
L 167.206822 84.425143 
L 167.206822 84.425143 
L 167.206822 83.808 
L 167.206822 83.808 
L 167.781432 83.808 
L 167.781432 83.808 
L 167.781432 83.190857 
L 168.643347 83.190857 
L 168.643347 82.573714 
L 168.643347 82.573714 
L 169.505261 82.573714 
L 169.505261 81.956571 
L 169.505261 81.956571 
L 170.079871 81.956571 
L 170.079871 81.956571 
L 170.079871 81.339429 
L 170.079871 81.339429 
L 170.654481 81.339429 
L 170.654481 81.339429 
L 170.654481 80.722286 
L 170.654481 80.722286 
L 171.516396 80.722286 
L 171.516396 80.722286 
L 171.516396 80.105143 
L 171.516396 80.105143 
L 172.378311 80.105143 
L 172.378311 79.488 
L 172.378311 79.488 
L 173.52753 79.488 
L 173.52753 79.488 
L 173.52753 78.870857 
L 173.52753 78.870857 
L 173.814835 78.870857 
L 173.814835 78.870857 
L 173.814835 78.253714 
L 173.814835 78.253714 
L 174.10214 78.253714 
L 174.10214 78.253714 
L 174.389445 77.636571 
L 174.389445 77.636571 
L 175.538665 77.636571 
L 175.538665 77.636571 
L 175.825969 77.019429 
L 175.825969 77.019429 
L 175.825969 76.402286 
L 175.825969 76.402286 
L 176.975189 76.402286 
L 176.975189 76.402286 
L 176.975189 75.785143 
L 177.837104 75.785143 
L 177.837104 75.785143 
L 178.124409 75.168 
L 178.124409 75.168 
L 178.699019 75.168 
L 178.699019 75.168 
L 178.986323 74.550857 
L 178.986323 74.550857 
L 179.848238 74.550857 
L 179.848238 74.550857 
L 180.135543 73.933714 
L 180.135543 73.933714 
L 180.135543 73.316571 
L 181.572068 73.316571 
L 181.572068 72.699429 
L 181.572068 72.699429 
L 182.146677 72.699429 
L 182.146677 72.082286 
L 182.146677 72.082286 
L 183.583202 72.082286 
L 183.583202 71.465143 
L 183.583202 71.465143 
L 184.157812 71.465143 
L 184.157812 71.465143 
L 184.157812 70.848 
L 185.019726 70.848 
L 185.019726 70.848 
L 185.307031 70.230857 
L 185.307031 70.230857 
L 187.030861 70.230857 
L 187.030861 69.613714 
L 187.030861 69.613714 
L 188.18008 69.613714 
L 188.18008 68.996571 
L 188.18008 68.996571 
L 189.041995 68.996571 
L 189.041995 68.379429 
L 189.041995 68.379429 
L 190.47852 68.379429 
L 190.47852 68.379429 
L 190.47852 67.762286 
L 191.627739 67.762286 
L 191.627739 67.762286 
L 191.627739 67.145143 
L 191.627739 67.145143 
L 192.776959 67.145143 
L 192.776959 67.145143 
L 193.064264 66.528 
L 193.064264 66.528 
L 194.788093 66.528 
L 194.788093 66.528 
L 194.788093 65.910857 
L 196.224618 65.910857 
L 196.224618 65.293714 
L 196.224618 65.293714 
L 196.799228 65.293714 
L 196.799228 65.293714 
L 196.799228 64.676571 
L 198.523057 64.676571 
L 198.523057 64.676571 
L 198.523057 64.059429 
L 199.959582 64.059429 
L 199.959582 64.059429 
L 199.959582 63.442286 
L 201.396106 63.442286 
L 201.396106 63.442286 
L 201.396106 62.825143 
L 203.119936 62.825143 
L 203.119936 62.825143 
L 203.119936 62.208 
L 203.119936 62.208 
L 205.992985 62.208 
L 205.992985 62.208 
L 205.992985 61.590857 
L 207.142204 61.590857 
L 207.142204 61.590857 
L 207.142204 60.973714 
L 207.142204 60.973714 
L 208.866034 60.973714 
L 208.866034 60.973714 
L 208.866034 60.356571 
L 210.589863 60.356571 
L 210.589863 60.356571 
L 210.589863 59.739429 
L 210.589863 59.739429 
L 212.888302 59.739429 
L 212.888302 59.739429 
L 212.888302 59.122286 
L 212.888302 59.122286 
L 214.899437 59.122286 
L 214.899437 59.122286 
L 214.899437 58.505143 
L 214.899437 58.505143 
L 220.070925 58.505143 
L 220.070925 58.505143 
L 220.070925 57.888 
L 221.794755 57.888 
L 221.794755 57.888 
L 221.794755 57.270857 
L 221.794755 57.270857 
L 223.231279 57.270857 
L 223.231279 56.653714 
L 223.231279 56.653714 
L 226.678938 56.653714 
L 226.678938 56.036571 
L 226.678938 56.036571 
L 230.126597 56.036571 
L 230.126597 56.036571 
L 230.126597 55.419429 
L 232.712341 55.419429 
L 232.712341 55.419429 
L 232.712341 54.802286 
L 232.712341 55.419429 
L 232.999646 55.419429 
L 232.999646 54.802286 
L 232.999646 54.802286 
L 237.021915 54.802286 
L 237.021915 54.802286 
L 237.021915 54.185143 
L 237.021915 54.185143 
L 244.779147 54.185143 
L 244.779147 54.185143 
L 244.779147 53.568 
L 246.790282 53.568 
L 246.790282 53.568 
L 246.790282 54.185143 
L 246.790282 54.185143 
L 247.077586 54.185143 
L 247.077586 57.270857 
L 247.364891 57.270857 
L 247.364891 58.505143 
L 247.364891 58.505143 
L 247.652196 58.505143 
L 247.652196 60.973714 
L 247.652196 60.973714 
L 247.939501 61.590857 
L 247.939501 64.676571 
L 248.226806 65.910857 
L 248.226806 67.145143 
L 248.514111 67.145143 
L 248.514111 70.230857 
L 248.801416 70.230857 
L 248.801416 70.230857 
L 248.801416 71.465143 
L 248.801416 71.465143 
L 249.088721 72.082286 
L 249.088721 74.550857 
L 249.376026 74.550857 
L 249.376026 77.636571 
L 249.663331 78.253714 
L 249.663331 79.488 
L 249.663331 79.488 
L 249.950636 80.105143 
L 249.950636 80.105143 
L 249.950636 82.573714 
L 250.23794 83.190857 
L 250.23794 83.190857 
L 250.23794 85.042286 
L 250.525245 85.659429 
L 250.525245 87.510857 
L 250.81255 87.510857 
L 250.81255 89.362286 
L 251.099855 89.979429 
L 251.099855 91.830857 
L 251.099855 91.830857 
L 251.38716 92.448 
L 251.38716 94.299429 
L 251.674465 94.916571 
L 251.674465 96.768 
L 251.96177 98.002286 
L 251.96177 98.002286 
L 251.96177 99.236571 
L 251.96177 99.236571 
L 252.249075 99.853714 
L 252.249075 101.705143 
L 252.53638 102.322286 
L 252.53638 103.556571 
L 252.53638 103.556571 
L 252.823685 104.173714 
L 252.823685 106.025143 
L 253.11099 106.642286 
L 253.11099 107.876571 
L 253.398294 108.493714 
L 253.398294 108.493714 
L 253.398294 110.962286 
L 253.685599 111.579429 
L 253.685599 111.579429 
L 253.685599 112.196571 
L 253.685599 112.196571 
L 253.972904 112.813714 
L 253.972904 114.665143 
L 254.260209 114.665143 
L 254.260209 116.516571 
L 254.547514 116.516571 
L 254.547514 116.516571 
L 254.547514 117.750857 
L 254.547514 117.750857 
L 254.834819 118.368 
L 254.834819 120.219429 
L 254.834819 120.219429 
L 255.122124 120.836571 
L 255.122124 122.688 
L 255.409429 122.688 
L 255.409429 123.305143 
L 255.409429 123.305143 
L 255.696734 123.922286 
L 255.696734 125.773714 
L 255.984039 126.390857 
L 255.984039 126.390857 
L 255.984039 128.242286 
L 255.984039 128.242286 
L 256.271344 128.859429 
L 256.271344 128.859429 
L 256.271344 129.476571 
L 256.271344 129.476571 
L 256.558648 130.093714 
L 256.558648 131.328 
L 256.845953 131.945143 
L 256.845953 131.945143 
L 256.845953 133.179429 
L 256.845953 133.179429 
L 257.133258 133.179429 
L 257.133258 134.413714 
L 257.133258 134.413714 
L 257.420563 135.030857 
L 257.420563 136.882286 
L 257.707868 137.499429 
L 257.707868 139.350857 
L 257.995173 139.350857 
L 257.995173 139.350857 
L 257.995173 140.585143 
L 258.282478 141.202286 
L 258.282478 141.202286 
L 258.282478 141.819429 
L 258.569783 142.436571 
L 258.569783 142.436571 
L 258.569783 143.670857 
L 258.857088 143.670857 
L 258.857088 146.139429 
L 259.144393 146.139429 
L 259.144393 146.139429 
L 259.144393 147.373714 
L 259.431698 147.373714 
L 259.431698 147.373714 
L 259.431698 148.608 
L 259.431698 148.608 
L 259.719002 149.225143 
L 259.719002 149.225143 
L 259.719002 150.459429 
L 260.006307 150.459429 
L 260.006307 151.693714 
L 260.006307 151.693714 
L 260.293612 152.310857 
L 260.293612 152.310857 
L 260.293612 153.545143 
L 260.580917 154.162286 
L 260.580917 155.396571 
L 260.580917 155.396571 
L 260.868222 155.396571 
L 260.868222 156.630857 
L 261.155527 156.630857 
L 261.155527 158.482286 
L 261.442832 158.482286 
L 261.442832 159.716571 
L 261.730137 160.333714 
L 261.730137 160.333714 
L 261.730137 160.950857 
L 261.730137 160.950857 
L 262.304747 162.185143 
L 262.304747 164.036571 
L 262.592051 164.036571 
L 262.592051 164.036571 
L 262.592051 165.888 
L 262.879356 165.888 
L 262.879356 165.888 
L 262.879356 166.505143 
L 263.166661 167.122286 
L 263.166661 168.356571 
L 263.166661 168.356571 
L 263.453966 168.356571 
L 263.453966 168.356571 
L 263.453966 169.590857 
L 263.741271 169.590857 
L 263.741271 169.590857 
L 263.741271 170.825143 
L 264.028576 170.825143 
L 264.028576 172.059429 
L 264.028576 172.059429 
L 264.315881 172.059429 
L 264.315881 173.910857 
L 264.603186 173.910857 
L 264.603186 175.762286 
L 264.603186 175.762286 
L 264.890491 175.762286 
L 264.890491 175.762286 
L 264.890491 176.379429 
L 265.177796 176.996571 
L 265.177796 178.230857 
L 265.177796 178.230857 
L 265.465101 178.230857 
L 265.465101 178.230857 
L 265.465101 178.848 
L 265.465101 178.848 
L 265.752405 178.848 
L 265.752405 180.699429 
L 266.03971 180.699429 
L 266.03971 180.699429 
L 266.03971 181.316571 
L 266.327015 181.933714 
L 266.327015 181.933714 
L 266.327015 182.550857 
L 266.327015 182.550857 
L 266.61432 182.550857 
L 266.61432 183.168 
L 266.61432 183.168 
L 266.901625 183.785143 
L 266.901625 185.019429 
L 267.18893 185.019429 
L 267.18893 185.019429 
L 267.18893 186.253714 
L 267.476235 186.253714 
L 267.476235 186.253714 
L 267.476235 186.870857 
L 267.76354 187.488 
L 267.76354 187.488 
L 267.76354 188.105143 
L 268.050845 188.105143 
L 268.050845 188.105143 
L 268.050845 189.339429 
L 268.050845 189.339429 
L 268.33815 189.339429 
L 268.33815 189.339429 
L 268.33815 189.956571 
L 268.33815 189.956571 
L 268.625455 190.573714 
L 268.625455 190.573714 
L 268.625455 191.190857 
L 268.625455 191.190857 
L 268.912759 191.190857 
L 268.912759 191.190857 
L 268.912759 191.808 
L 268.912759 191.808 
L 269.200064 192.425143 
L 269.200064 192.425143 
L 269.200064 193.042286 
L 269.487369 193.659429 
L 269.487369 193.659429 
L 269.487369 194.276571 
L 269.774674 194.276571 
L 269.774674 195.510857 
L 269.774674 195.510857 
L 270.061979 195.510857 
L 270.061979 196.128 
L 270.061979 196.128 
L 270.349284 196.745143 
L 270.349284 197.362286 
L 270.349284 197.362286 
L 270.636589 197.362286 
L 270.636589 197.362286 
L 270.636589 198.596571 
L 271.211199 198.596571 
L 271.211199 198.596571 
L 271.211199 200.448 
L 271.498504 200.448 
L 271.498504 200.448 
L 271.498504 201.065143 
L 271.498504 201.065143 
L 272.073113 202.299429 
L 272.073113 202.299429 
L 272.073113 202.916571 
L 272.073113 202.916571 
L 272.360418 202.916571 
L 272.360418 202.916571 
L 272.360418 203.533714 
L 272.360418 203.533714 
L 272.647723 203.533714 
L 272.647723 204.768 
L 272.935028 204.768 
L 272.935028 204.768 
L 273.222333 205.385143 
L 273.222333 205.385143 
L 273.222333 206.002286 
L 273.222333 206.002286 
L 273.509638 206.619429 
L 273.509638 206.619429 
L 273.796943 206.619429 
L 273.796943 206.619429 
L 274.084248 207.236571 
L 274.084248 207.236571 
L 274.371553 207.236571 
L 274.371553 209.088 
L 274.658858 209.088 
L 274.658858 209.705143 
L 274.658858 209.705143 
L 274.946163 209.705143 
L 274.946163 210.322286 
L 274.946163 210.322286 
L 275.233467 210.322286 
L 275.233467 211.556571 
L 275.520772 211.556571 
L 275.520772 211.556571 
L 275.520772 212.173714 
L 275.808077 212.173714 
L 275.808077 212.173714 
L 275.808077 212.790857 
L 275.808077 212.790857 
L 276.095382 212.790857 
L 276.095382 214.025143 
L 276.669992 214.025143 
L 276.669992 214.642286 
L 276.669992 214.642286 
L 276.957297 214.642286 
L 276.957297 215.259429 
L 276.957297 215.259429 
L 277.244602 215.259429 
L 277.244602 215.876571 
L 277.244602 215.876571 
L 277.531907 215.876571 
L 277.531907 215.876571 
L 277.531907 216.493714 
L 277.531907 216.493714 
L 277.819212 216.493714 
L 277.819212 216.493714 
L 277.819212 217.110857 
L 278.393821 218.345143 
L 278.393821 218.345143 
L 278.393821 218.962286 
L 278.968431 218.962286 
L 278.968431 219.579429 
L 278.968431 219.579429 
L 279.255736 219.579429 
L 279.255736 220.196571 
L 279.255736 220.196571 
L 279.543041 220.196571 
L 279.543041 220.196571 
L 279.543041 220.813714 
L 279.543041 220.813714 
L 279.830346 221.430857 
L 279.830346 221.430857 
L 279.830346 222.048 
L 280.117651 222.048 
L 280.117651 222.048 
L 280.404956 222.665143 
L 280.404956 222.665143 
L 280.692261 222.665143 
L 280.692261 222.665143 
L 280.692261 223.899429 
L 280.979566 223.899429 
L 280.979566 223.899429 
L 280.979566 224.516571 
L 281.554175 224.516571 
L 281.554175 224.516571 
L 281.554175 225.133714 
L 281.554175 225.133714 
L 281.84148 225.133714 
L 281.84148 225.750857 
L 281.84148 225.750857 
L 282.128785 225.750857 
L 282.128785 225.750857 
L 282.128785 226.368 
L 282.128785 226.368 
L 282.703395 226.368 
L 282.703395 227.602286 
L 282.703395 227.602286 
L 282.9907 227.602286 
L 282.9907 227.602286 
L 283.278005 228.219429 
L 283.278005 228.219429 
L 283.56531 228.219429 
L 283.56531 228.219429 
L 284.13992 229.453714 
L 284.13992 229.453714 
L 284.427224 229.453714 
L 284.427224 230.070857 
L 284.427224 230.070857 
L 284.714529 230.070857 
L 284.714529 230.688 
L 284.714529 230.688 
L 285.001834 230.688 
L 285.001834 230.688 
L 285.001834 231.305143 
L 285.001834 231.305143 
L 285.289139 231.305143 
L 285.289139 231.922286 
L 285.289139 231.922286 
L 285.576444 232.539429 
L 285.576444 233.156571 
L 285.576444 233.156571 
L 286.151054 233.156571 
L 286.151054 233.156571 
L 286.151054 233.773714 
L 286.438359 233.773714 
L 286.438359 233.773714 
L 286.438359 234.390857 
L 286.438359 234.390857 
L 287.012969 234.390857 
L 287.012969 234.390857 
L 287.012969 235.008 
L 287.012969 235.008 
L 287.300274 235.008 
L 287.300274 235.008 
L 287.300274 235.625143 
L 287.300274 235.625143 
L 287.587578 235.625143 
L 287.587578 235.625143 
L 287.874883 236.242286 
L 287.874883 236.242286 
L 288.162188 236.242286 
L 288.162188 236.859429 
L 288.162188 236.859429 
L 288.449493 236.859429 
L 288.449493 236.859429 
L 288.449493 237.476571 
L 288.449493 237.476571 
L 288.736798 237.476571 
L 288.736798 238.093714 
L 288.736798 238.093714 
L 289.024103 238.093714 
L 289.024103 238.093714 
L 289.024103 238.710857 
L 289.886018 238.710857 
L 289.886018 238.710857 
L 289.886018 239.328 
L 289.886018 239.328 
L 290.460628 239.328 
L 290.460628 239.328 
L 290.460628 239.945143 
L 290.747932 240.562286 
L 290.747932 240.562286 
L 291.035237 240.562286 
L 291.035237 240.562286 
L 291.035237 241.179429 
L 291.035237 241.179429 
L 291.322542 241.179429 
L 291.322542 241.179429 
L 291.609847 241.796571 
L 291.609847 241.796571 
L 291.897152 241.796571 
L 291.897152 241.796571 
L 291.897152 242.413714 
L 291.897152 242.413714 
L 292.759067 242.413714 
L 292.759067 243.030857 
L 292.759067 243.030857 
L 293.046372 243.030857 
L 293.046372 243.030857 
L 293.046372 243.648 
L 293.046372 243.648 
L 293.333677 243.648 
L 293.333677 243.648 
L 293.333677 244.265143 
L 294.195591 244.265143 
L 294.195591 244.265143 
L 294.195591 245.499429 
L 294.195591 245.499429 
L 295.057506 245.499429 
L 295.057506 246.116571 
L 295.057506 246.116571 
L 295.344811 246.116571 
L 295.344811 246.116571 
L 295.632116 246.733714 
L 295.632116 246.733714 
L 295.632116 247.350857 
L 295.919421 247.350857 
L 295.919421 247.350857 
L 295.919421 247.968 
L 296.781335 247.968 
L 296.781335 247.968 
L 296.781335 248.585143 
L 296.781335 248.585143 
L 297.355945 248.585143 
L 297.355945 248.585143 
L 297.64325 249.202286 
L 297.64325 249.202286 
L 297.930555 249.202286 
L 297.930555 249.202286 
L 297.930555 250.436571 
L 297.930555 250.436571 
L 299.079775 250.436571 
L 299.079775 250.436571 
L 299.079775 251.053714 
L 299.941689 251.053714 
L 299.941689 252.905143 
L 300.516299 252.905143 
L 300.516299 252.905143 
L 300.516299 253.522286 
L 300.516299 253.522286 
L 301.090909 253.522286 
L 301.090909 253.522286 
L 301.090909 254.139429 
L 301.090909 254.139429 
L 301.665519 254.139429 
L 301.665519 254.139429 
L 301.665519 254.756571 
L 301.665519 254.756571 
L 302.527434 254.756571 
L 302.527434 255.990857 
L 302.527434 255.990857 
L 303.389348 255.990857 
L 303.389348 255.990857 
L 303.389348 256.608 
L 303.389348 256.608 
L 303.963958 256.608 
L 303.963958 256.608 
L 303.963958 257.225143 
L 303.963958 257.225143 
L 304.538568 257.225143 
L 304.538568 257.225143 
L 304.538568 257.842286 
L 304.538568 257.842286 
L 305.113178 257.842286 
L 305.113178 257.842286 
L 305.113178 259.076571 
L 305.687788 259.076571 
L 305.687788 259.076571 
L 305.975093 259.693714 
L 305.975093 259.693714 
L 306.549702 259.693714 
L 306.549702 259.693714 
L 306.549702 260.310857 
L 306.549702 260.310857 
L 307.124312 260.310857 
L 307.124312 260.310857 
L 307.124312 260.928 
L 307.124312 260.928 
L 308.273532 260.928 
L 308.273532 262.779429 
L 308.273532 262.779429 
L 309.135447 262.779429 
L 309.135447 262.779429 
L 309.422751 263.396571 
L 309.422751 263.396571 
L 309.710056 263.396571 
L 309.710056 263.396571 
L 309.710056 264.013714 
L 310.859276 264.013714 
L 310.859276 265.248 
L 310.859276 265.248 
L 311.721191 265.248 
L 311.721191 265.865143 
L 311.721191 265.865143 
L 312.583105 265.865143 
L 312.583105 265.865143 
L 312.583105 266.482286 
L 313.732325 266.482286 
L 313.732325 266.482286 
L 313.732325 267.099429 
L 313.732325 267.099429 
L 314.881545 267.099429 
L 314.881545 267.099429 
L 314.881545 268.333714 
L 314.881545 268.333714 
L 315.743459 268.333714 
L 315.743459 268.333714 
L 315.743459 268.950857 
L 315.743459 268.950857 
L 316.318069 268.950857 
L 316.318069 268.950857 
L 316.318069 269.568 
L 317.179984 269.568 
L 317.179984 269.568 
L 317.179984 270.185143 
L 318.329204 270.185143 
L 318.329204 270.185143 
L 318.329204 271.419429 
L 318.329204 271.419429 
L 319.191118 271.419429 
L 319.191118 271.419429 
L 319.191118 272.036571 
L 319.191118 272.036571 
L 319.478423 272.036571 
L 319.478423 272.036571 
L 319.478423 272.653714 
L 321.489558 272.653714 
L 321.489558 272.653714 
L 321.489558 273.270857 
L 322.926082 273.270857 
L 322.926082 273.270857 
L 323.213387 274.505143 
L 323.213387 274.505143 
L 323.787997 274.505143 
L 323.787997 275.739429 
L 323.787997 275.739429 
L 325.799131 275.739429 
L 325.799131 275.739429 
L 325.799131 276.356571 
L 325.799131 276.356571 
L 327.235656 276.356571 
L 327.235656 276.973714 
L 327.235656 276.973714 
L 328.67218 276.973714 
L 328.67218 276.973714 
L 328.67218 278.208 
L 328.67218 278.208 
L 330.39601 278.208 
L 330.39601 278.208 
L 330.683315 278.825143 
L 330.683315 278.825143 
L 332.119839 278.825143 
L 332.119839 278.825143 
L 332.119839 279.442286 
L 332.119839 279.442286 
L 333.843669 279.442286 
L 333.843669 280.676571 
L 333.843669 280.676571 
L 335.567498 280.676571 
L 335.567498 280.676571 
L 335.854803 281.293714 
L 335.854803 281.293714 
L 337.004023 281.293714 
L 337.004023 281.293714 
L 337.004023 281.910857 
L 337.004023 281.910857 
L 338.153242 281.910857 
L 338.153242 281.910857 
L 338.153242 282.528 
L 340.164377 282.528 
L 340.164377 282.528 
L 340.451681 283.145143 
L 340.451681 283.762286 
L 340.451681 283.762286 
L 341.888206 283.762286 
L 341.888206 283.762286 
L 342.175511 284.379429 
L 342.175511 284.379429 
L 344.186645 284.379429 
L 344.186645 284.379429 
L 344.186645 284.996571 
L 344.186645 284.996571 
L 346.772389 284.996571 
L 346.772389 284.996571 
L 346.772389 285.613714 
L 349.932743 285.613714 
L 349.932743 285.613714 
L 349.932743 286.230857 
L 350.220048 286.848 
L 350.220048 286.848 
L 352.231183 286.848 
L 352.231183 286.848 
L 352.231183 287.465143 
L 354.529622 287.465143 
L 354.529622 287.465143 
L 354.816927 288.082286 
L 354.816927 288.082286 
L 355.966146 288.082286 
L 355.966146 288.082286 
L 356.253451 288.699429 
L 356.253451 288.699429 
L 359.1265 288.699429 
L 359.1265 288.699429 
L 359.1265 289.933714 
L 359.1265 289.933714 
L 362.861464 289.933714 
L 362.861464 289.933714 
L 363.148769 290.550857 
L 363.148769 290.550857 
L 367.458343 290.550857 
L 367.458343 290.550857 
L 367.458343 291.168 
L 372.629831 291.168 
L 372.629831 291.785143 
L 372.629831 291.785143 
L 377.801319 291.785143 
L 377.801319 291.785143 
L 377.801319 293.019429 
L 377.801319 293.019429 
L 382.685503 293.019429 
L 382.685503 293.636571 
L 382.685503 293.636571 
L 387.856991 293.636571 
L 387.856991 294.253714 
L 387.856991 294.253714 
L 388.144296 293.636571 
L 388.144296 294.253714 
L 388.144296 294.253714 
L 392.166565 294.253714 
L 392.166565 294.870857 
L 392.166565 294.870857 
L 392.741175 294.870857 
L 392.741175 294.870857 
L 392.741175 294.253714 
L 392.741175 294.253714 
L 393.028479 294.253714 
L 393.028479 294.870857 
L 393.028479 294.870857 
L 398.487273 294.870857 
L 398.487273 294.870857 
" style="fill:none;stroke:#1f77b4;stroke-linecap:square;stroke-opacity:0.6;stroke-width:2;"/>
   </g>
   <g id="line2d_32">
    <path clip-path="url(#pbb9dc29b6b)" d="M 100.552084 295.488 
L 103.137828 275.795456 
L 103.137828 275.795456 
L 105.723572 257.705905 
L 105.723572 257.705905 
L 108.309316 241.088864 
L 108.309316 241.088864 
L 110.89506 225.824467 
L 110.89506 225.824467 
L 113.480805 211.802608 
L 113.480805 211.802608 
L 116.066549 198.922143 
L 116.066549 198.922143 
L 118.652293 187.090162 
L 118.652293 187.090162 
L 121.238037 176.221316 
L 121.238037 176.221316 
L 123.823781 166.237207 
L 123.823781 166.237207 
L 126.409525 157.065814 
L 126.409525 157.065814 
L 128.99527 148.640982 
L 128.99527 148.640982 
L 131.581014 140.901941 
L 131.581014 140.901941 
L 134.166758 133.792865 
L 134.166758 133.792865 
L 137.039807 126.570514 
L 137.039807 126.570514 
L 139.912856 119.998365 
L 139.912856 119.998365 
L 142.785905 114.017883 
L 142.785905 114.017883 
L 145.658954 108.575801 
L 145.658954 108.575801 
L 148.532003 103.62365 
L 148.532003 103.62365 
L 151.405052 99.117324 
L 151.405052 99.117324 
L 154.278101 95.016685 
L 154.278101 95.016685 
L 157.15115 91.285211 
L 157.15115 91.285211 
L 160.0242 87.889669 
L 160.0242 87.889669 
L 163.184553 84.506561 
L 163.184553 84.506561 
L 166.344907 81.456927 
L 166.344907 81.456927 
L 169.505261 78.707898 
L 169.505261 78.707898 
L 172.95292 76.017057 
L 172.95292 76.017057 
L 176.400579 73.614229 
L 176.400579 73.614229 
L 179.848238 71.468587 
L 179.848238 71.468587 
L 183.583202 69.402514 
L 183.583202 69.402514 
L 187.605471 67.443387 
L 187.605471 67.443387 
L 191.627739 65.726652 
L 191.627739 65.726652 
L 195.937313 64.122282 
L 195.937313 64.122282 
L 200.534191 62.643588 
L 200.534191 62.643588 
L 205.418375 61.298789 
L 205.418375 61.298789 
L 210.877168 60.030173 
L 210.877168 60.030173 
L 216.910571 58.868772 
L 216.910571 58.868772 
L 223.518584 57.83483 
L 223.518584 57.83483 
L 230.701207 56.938369 
L 230.701207 56.938369 
L 239.033049 56.131663 
L 239.033049 56.131663 
L 244.779147 55.690847 
L 244.779147 55.690847 
" style="fill:none;stroke:#ff0000;stroke-dasharray:12.8,3.2,2,3.2;stroke-dashoffset:0;stroke-opacity:0.6;stroke-width:2;"/>
   </g>
   <g id="line2d_33">
    <path clip-path="url(#pbb9dc29b6b)" d="M 244.779147 53.568 
L 247.364891 73.260544 
L 247.364891 73.260544 
L 249.950636 91.350095 
L 249.950636 91.350095 
L 252.53638 107.967136 
L 252.53638 107.967136 
L 255.122124 123.231533 
L 255.122124 123.231533 
L 257.707868 137.253392 
L 257.707868 137.253392 
L 260.293612 150.133857 
L 260.293612 150.133857 
L 262.879356 161.965838 
L 262.879356 161.965838 
L 265.465101 172.834684 
L 265.465101 172.834684 
L 268.050845 182.818793 
L 268.050845 182.818793 
L 270.636589 191.990186 
L 270.636589 191.990186 
L 273.222333 200.415018 
L 273.222333 200.415018 
L 275.808077 208.154059 
L 275.808077 208.154059 
L 278.393821 215.263135 
L 278.393821 215.263135 
L 281.26687 222.485486 
L 281.26687 222.485486 
L 284.13992 229.057635 
L 284.13992 229.057635 
L 287.012969 235.038117 
L 287.012969 235.038117 
L 289.886018 240.480199 
L 289.886018 240.480199 
L 292.759067 245.43235 
L 292.759067 245.43235 
L 295.632116 249.938676 
L 295.632116 249.938676 
L 298.505165 254.039315 
L 298.505165 254.039315 
L 301.378214 257.770789 
L 301.378214 257.770789 
L 304.251263 261.166331 
L 304.251263 261.166331 
L 307.411617 264.549439 
L 307.411617 264.549439 
L 310.571971 267.599073 
L 310.571971 267.599073 
L 313.732325 270.348102 
L 313.732325 270.348102 
L 317.179984 273.038943 
L 317.179984 273.038943 
L 320.627643 275.441771 
L 320.627643 275.441771 
L 324.075302 277.587413 
L 324.075302 277.587413 
L 327.810265 279.653486 
L 327.810265 279.653486 
L 331.832534 281.612613 
L 331.832534 281.612613 
L 335.854803 283.329348 
L 335.854803 283.329348 
L 340.164377 284.933718 
L 340.164377 284.933718 
L 344.761255 286.412412 
L 344.761255 286.412412 
L 349.645438 287.757211 
L 349.645438 287.757211 
L 355.104232 289.025827 
L 355.104232 289.025827 
L 361.137635 290.187228 
L 361.137635 290.187228 
L 367.745648 291.22117 
L 367.745648 291.22117 
L 374.92827 292.117631 
L 374.92827 292.117631 
L 383.260113 292.924337 
L 383.260113 292.924337 
L 392.741175 293.610171 
L 392.741175 293.610171 
L 398.487273 293.933059 
L 398.487273 293.933059 
" style="fill:none;stroke:#ff0000;stroke-dasharray:12.8,3.2,2,3.2;stroke-dashoffset:0;stroke-opacity:0.6;stroke-width:2;"/>
   </g>
   <g id="patch_3">
    <path d="M 57.6 307.584 
L 57.6 41.472 
" style="fill:none;stroke:#000000;stroke-linecap:square;stroke-linejoin:miter;stroke-width:0.8;"/>
   </g>
   <g id="patch_4">
    <path d="M 414.72 307.584 
L 414.72 41.472 
" style="fill:none;stroke:#000000;stroke-linecap:square;stroke-linejoin:miter;stroke-width:0.8;"/>
   </g>
   <g id="patch_5">
    <path d="M 57.6 307.584 
L 414.72 307.584 
" style="fill:none;stroke:#000000;stroke-linecap:square;stroke-linejoin:miter;stroke-width:0.8;"/>
   </g>
   <g id="patch_6">
    <path d="M 57.6 41.472 
L 414.72 41.472 
" style="fill:none;stroke:#000000;stroke-linecap:square;stroke-linejoin:miter;stroke-width:0.8;"/>
   </g>
   <g id="text_18">
    <!-- Porovnání naměřených hodnot s identifikovanou soustavou -->
    <defs>
     <path d="M 19.671875 64.796875 
L 19.671875 37.40625 
L 32.078125 37.40625 
Q 38.96875 37.40625 42.71875 40.96875 
Q 46.484375 44.53125 46.484375 51.125 
Q 46.484375 57.671875 42.71875 61.234375 
Q 38.96875 64.796875 32.078125 64.796875 
z
M 9.8125 72.90625 
L 32.078125 72.90625 
Q 44.34375 72.90625 50.609375 67.359375 
Q 56.890625 61.8125 56.890625 51.125 
Q 56.890625 40.328125 50.609375 34.8125 
Q 44.34375 29.296875 32.078125 29.296875 
L 19.671875 29.296875 
L 19.671875 0 
L 9.8125 0 
z
" id="DejaVuSans-50"/>
     <path d="M 41.109375 46.296875 
Q 39.59375 47.171875 37.8125 47.578125 
Q 36.03125 48 33.890625 48 
Q 26.265625 48 22.1875 43.046875 
Q 18.109375 38.09375 18.109375 28.8125 
L 18.109375 0 
L 9.078125 0 
L 9.078125 54.6875 
L 18.109375 54.6875 
L 18.109375 46.1875 
Q 20.953125 51.171875 25.484375 53.578125 
Q 30.03125 56 36.53125 56 
Q 37.453125 56 38.578125 55.875 
Q 39.703125 55.765625 41.0625 55.515625 
z
" id="DejaVuSans-72"/>
     <path d="M 2.984375 54.6875 
L 12.5 54.6875 
L 29.59375 8.796875 
L 46.6875 54.6875 
L 56.203125 54.6875 
L 35.6875 0 
L 23.484375 0 
z
" id="DejaVuSans-76"/>
     <path d="M 54.890625 33.015625 
L 54.890625 0 
L 45.90625 0 
L 45.90625 32.71875 
Q 45.90625 40.484375 42.875 44.328125 
Q 39.84375 48.1875 33.796875 48.1875 
Q 26.515625 48.1875 22.3125 43.546875 
Q 18.109375 38.921875 18.109375 30.90625 
L 18.109375 0 
L 9.078125 0 
L 9.078125 54.6875 
L 18.109375 54.6875 
L 18.109375 46.1875 
Q 21.34375 51.125 25.703125 53.5625 
Q 30.078125 56 35.796875 56 
Q 45.21875 56 50.046875 50.171875 
Q 54.890625 44.34375 54.890625 33.015625 
z
" id="DejaVuSans-6e"/>
     <path d="M 34.28125 27.484375 
Q 23.390625 27.484375 19.1875 25 
Q 14.984375 22.515625 14.984375 16.5 
Q 14.984375 11.71875 18.140625 8.90625 
Q 21.296875 6.109375 26.703125 6.109375 
Q 34.1875 6.109375 38.703125 11.40625 
Q 43.21875 16.703125 43.21875 25.484375 
L 43.21875 27.484375 
z
M 52.203125 31.203125 
L 52.203125 0 
L 43.21875 0 
L 43.21875 8.296875 
Q 40.140625 3.328125 35.546875 0.953125 
Q 30.953125 -1.421875 24.3125 -1.421875 
Q 15.921875 -1.421875 10.953125 3.296875 
Q 6 8.015625 6 15.921875 
Q 6 25.140625 12.171875 29.828125 
Q 18.359375 34.515625 30.609375 34.515625 
L 43.21875 34.515625 
L 43.21875 35.40625 
Q 43.21875 41.609375 39.140625 45 
Q 35.0625 48.390625 27.6875 48.390625 
Q 23 48.390625 18.546875 47.265625 
Q 14.109375 46.140625 10.015625 43.890625 
L 10.015625 52.203125 
Q 14.9375 54.109375 19.578125 55.046875 
Q 24.21875 56 28.609375 56 
Q 40.484375 56 46.34375 49.84375 
Q 52.203125 43.703125 52.203125 31.203125 
z
M 35.796875 79.984375 
L 45.515625 79.984375 
L 29.59375 61.625 
L 22.125 61.625 
z
" id="DejaVuSans-e1"/>
     <path d="M 20.703125 79.984375 
L 30.421875 79.984375 
L 14.5 61.625 
L 7.03125 61.625 
z
M 9.421875 54.6875 
L 18.40625 54.6875 
L 18.40625 0 
L 9.421875 0 
z
M 13.921875 56 
z
" id="DejaVuSans-ed"/>
     <path d="M 52 44.1875 
Q 55.375 50.25 60.0625 53.125 
Q 64.75 56 71.09375 56 
Q 79.640625 56 84.28125 50.015625 
Q 88.921875 44.046875 88.921875 33.015625 
L 88.921875 0 
L 79.890625 0 
L 79.890625 32.71875 
Q 79.890625 40.578125 77.09375 44.375 
Q 74.3125 48.1875 68.609375 48.1875 
Q 61.625 48.1875 57.5625 43.546875 
Q 53.515625 38.921875 53.515625 30.90625 
L 53.515625 0 
L 44.484375 0 
L 44.484375 32.71875 
Q 44.484375 40.625 41.703125 44.40625 
Q 38.921875 48.1875 33.109375 48.1875 
Q 26.21875 48.1875 22.15625 43.53125 
Q 18.109375 38.875 18.109375 30.90625 
L 18.109375 0 
L 9.078125 0 
L 9.078125 54.6875 
L 18.109375 54.6875 
L 18.109375 46.1875 
Q 21.1875 51.21875 25.484375 53.609375 
Q 29.78125 56 35.6875 56 
Q 41.65625 56 45.828125 52.96875 
Q 50 49.953125 52 44.1875 
z
" id="DejaVuSans-6d"/>
     <path d="M 56.203125 29.59375 
L 56.203125 25.203125 
L 14.890625 25.203125 
Q 15.484375 15.921875 20.484375 11.0625 
Q 25.484375 6.203125 34.421875 6.203125 
Q 39.59375 6.203125 44.453125 7.46875 
Q 49.3125 8.734375 54.109375 11.28125 
L 54.109375 2.78125 
Q 49.265625 0.734375 44.1875 -0.34375 
Q 39.109375 -1.421875 33.890625 -1.421875 
Q 20.796875 -1.421875 13.15625 6.1875 
Q 5.515625 13.8125 5.515625 26.8125 
Q 5.515625 40.234375 12.765625 48.109375 
Q 20.015625 56 32.328125 56 
Q 43.359375 56 49.78125 48.890625 
Q 56.203125 41.796875 56.203125 29.59375 
z
M 47.21875 32.234375 
Q 47.125 39.59375 43.09375 43.984375 
Q 39.0625 48.390625 32.421875 48.390625 
Q 24.90625 48.390625 20.390625 44.140625 
Q 15.875 39.890625 15.1875 32.171875 
z
M 28.609375 61.375 
L 16.65625 79.734375 
L 23.4375 79.734375 
L 32.234375 67.765625 
L 41.015625 79.734375 
L 47.796875 79.734375 
L 35.84375 61.375 
z
" id="DejaVuSans-11b"/>
     <path d="M 41.109375 46.296875 
Q 39.59375 47.171875 37.8125 47.578125 
Q 36.03125 48 33.890625 48 
Q 26.265625 48 22.1875 43.046875 
Q 18.109375 38.09375 18.109375 28.8125 
L 18.109375 0 
L 9.078125 0 
L 9.078125 54.6875 
L 18.109375 54.6875 
L 18.109375 46.1875 
Q 20.953125 51.171875 25.484375 53.578125 
Q 30.03125 56 36.53125 56 
Q 37.453125 56 38.578125 55.875 
Q 39.703125 55.765625 41.0625 55.515625 
z
M 22.703125 61.625 
L 10.75 79.984375 
L 17.53125 79.984375 
L 26.3125 68.015625 
L 35.109375 79.984375 
L 41.890625 79.984375 
L 29.9375 61.625 
z
" id="DejaVuSans-159"/>
     <path d="M 32.171875 -5.078125 
Q 28.375 -14.84375 24.75 -17.8125 
Q 21.140625 -20.796875 15.09375 -20.796875 
L 7.90625 -20.796875 
L 7.90625 -13.28125 
L 13.1875 -13.28125 
Q 16.890625 -13.28125 18.9375 -11.515625 
Q 21 -9.765625 23.484375 -3.21875 
L 25.09375 0.875 
L 2.984375 54.6875 
L 12.5 54.6875 
L 29.59375 11.921875 
L 46.6875 54.6875 
L 56.203125 54.6875 
z
M 36.375 79.984375 
L 46.09375 79.984375 
L 30.171875 61.625 
L 22.703125 61.625 
z
" id="DejaVuSans-fd"/>
     <path d="M 48.78125 52.59375 
L 48.78125 44.1875 
Q 44.96875 46.296875 41.140625 47.34375 
Q 37.3125 48.390625 33.40625 48.390625 
Q 24.65625 48.390625 19.8125 42.84375 
Q 14.984375 37.3125 14.984375 27.296875 
Q 14.984375 17.28125 19.8125 11.734375 
Q 24.65625 6.203125 33.40625 6.203125 
Q 37.3125 6.203125 41.140625 7.25 
Q 44.96875 8.296875 48.78125 10.40625 
L 48.78125 2.09375 
Q 45.015625 0.34375 40.984375 -0.53125 
Q 36.96875 -1.421875 32.421875 -1.421875 
Q 20.0625 -1.421875 12.78125 6.34375 
Q 5.515625 14.109375 5.515625 27.296875 
Q 5.515625 40.671875 12.859375 48.328125 
Q 20.21875 56 33.015625 56 
Q 37.15625 56 41.109375 55.140625 
Q 45.0625 54.296875 48.78125 52.59375 
z
" id="DejaVuSans-63"/>
     <path d="M 54.890625 33.015625 
L 54.890625 0 
L 45.90625 0 
L 45.90625 32.71875 
Q 45.90625 40.484375 42.875 44.328125 
Q 39.84375 48.1875 33.796875 48.1875 
Q 26.515625 48.1875 22.3125 43.546875 
Q 18.109375 38.921875 18.109375 30.90625 
L 18.109375 0 
L 9.078125 0 
L 9.078125 75.984375 
L 18.109375 75.984375 
L 18.109375 46.1875 
Q 21.34375 51.125 25.703125 53.5625 
Q 30.078125 56 35.796875 56 
Q 45.21875 56 50.046875 50.171875 
Q 54.890625 44.34375 54.890625 33.015625 
z
" id="DejaVuSans-68"/>
     <path d="M 45.40625 46.390625 
L 45.40625 75.984375 
L 54.390625 75.984375 
L 54.390625 0 
L 45.40625 0 
L 45.40625 8.203125 
Q 42.578125 3.328125 38.25 0.953125 
Q 33.9375 -1.421875 27.875 -1.421875 
Q 17.96875 -1.421875 11.734375 6.484375 
Q 5.515625 14.40625 5.515625 27.296875 
Q 5.515625 40.1875 11.734375 48.09375 
Q 17.96875 56 27.875 56 
Q 33.9375 56 38.25 53.625 
Q 42.578125 51.265625 45.40625 46.390625 
z
M 14.796875 27.296875 
Q 14.796875 17.390625 18.875 11.75 
Q 22.953125 6.109375 30.078125 6.109375 
Q 37.203125 6.109375 41.296875 11.75 
Q 45.40625 17.390625 45.40625 27.296875 
Q 45.40625 37.203125 41.296875 42.84375 
Q 37.203125 48.484375 30.078125 48.484375 
Q 22.953125 48.484375 18.875 42.84375 
Q 14.796875 37.203125 14.796875 27.296875 
z
" id="DejaVuSans-64"/>
     <path d="M 9.421875 54.6875 
L 18.40625 54.6875 
L 18.40625 0 
L 9.421875 0 
z
M 9.421875 75.984375 
L 18.40625 75.984375 
L 18.40625 64.59375 
L 9.421875 64.59375 
z
" id="DejaVuSans-69"/>
     <path d="M 37.109375 75.984375 
L 37.109375 68.5 
L 28.515625 68.5 
Q 23.6875 68.5 21.796875 66.546875 
Q 19.921875 64.59375 19.921875 59.515625 
L 19.921875 54.6875 
L 34.71875 54.6875 
L 34.71875 47.703125 
L 19.921875 47.703125 
L 19.921875 0 
L 10.890625 0 
L 10.890625 47.703125 
L 2.296875 47.703125 
L 2.296875 54.6875 
L 10.890625 54.6875 
L 10.890625 58.5 
Q 10.890625 67.625 15.140625 71.796875 
Q 19.390625 75.984375 28.609375 75.984375 
z
" id="DejaVuSans-66"/>
     <path d="M 9.078125 75.984375 
L 18.109375 75.984375 
L 18.109375 31.109375 
L 44.921875 54.6875 
L 56.390625 54.6875 
L 27.390625 29.109375 
L 57.625 0 
L 45.90625 0 
L 18.109375 26.703125 
L 18.109375 0 
L 9.078125 0 
z
" id="DejaVuSans-6b"/>
     <path d="M 8.5 21.578125 
L 8.5 54.6875 
L 17.484375 54.6875 
L 17.484375 21.921875 
Q 17.484375 14.15625 20.5 10.265625 
Q 23.53125 6.390625 29.59375 6.390625 
Q 36.859375 6.390625 41.078125 11.03125 
Q 45.3125 15.671875 45.3125 23.6875 
L 45.3125 54.6875 
L 54.296875 54.6875 
L 54.296875 0 
L 45.3125 0 
L 45.3125 8.40625 
Q 42.046875 3.421875 37.71875 1 
Q 33.40625 -1.421875 27.6875 -1.421875 
Q 18.265625 -1.421875 13.375 4.4375 
Q 8.5 10.296875 8.5 21.578125 
z
M 31.109375 56 
z
" id="DejaVuSans-75"/>
    </defs>
    <g transform="translate(57.646875 35.472)scale(0.12 -0.12)">
     <use xlink:href="#DejaVuSans-50"/>
     <use x="60.255859" xlink:href="#DejaVuSans-6f"/>
     <use x="121.4375" xlink:href="#DejaVuSans-72"/>
     <use x="162.519531" xlink:href="#DejaVuSans-6f"/>
     <use x="223.701172" xlink:href="#DejaVuSans-76"/>
     <use x="282.880859" xlink:href="#DejaVuSans-6e"/>
     <use x="346.259766" xlink:href="#DejaVuSans-e1"/>
     <use x="407.539062" xlink:href="#DejaVuSans-6e"/>
     <use x="470.917969" xlink:href="#DejaVuSans-ed"/>
     <use x="498.701172" xlink:href="#DejaVuSans-20"/>
     <use x="530.488281" xlink:href="#DejaVuSans-6e"/>
     <use x="593.867188" xlink:href="#DejaVuSans-61"/>
     <use x="655.146484" xlink:href="#DejaVuSans-6d"/>
     <use x="752.558594" xlink:href="#DejaVuSans-11b"/>
     <use x="814.082031" xlink:href="#DejaVuSans-159"/>
     <use x="855.164062" xlink:href="#DejaVuSans-65"/>
     <use x="916.6875" xlink:href="#DejaVuSans-6e"/>
     <use x="980.066406" xlink:href="#DejaVuSans-fd"/>
     <use x="1039.246094" xlink:href="#DejaVuSans-63"/>
     <use x="1094.226562" xlink:href="#DejaVuSans-68"/>
     <use x="1157.605469" xlink:href="#DejaVuSans-20"/>
     <use x="1189.392578" xlink:href="#DejaVuSans-68"/>
     <use x="1252.771484" xlink:href="#DejaVuSans-6f"/>
     <use x="1313.953125" xlink:href="#DejaVuSans-64"/>
     <use x="1377.429688" xlink:href="#DejaVuSans-6e"/>
     <use x="1440.808594" xlink:href="#DejaVuSans-6f"/>
     <use x="1501.990234" xlink:href="#DejaVuSans-74"/>
     <use x="1541.199219" xlink:href="#DejaVuSans-20"/>
     <use x="1572.986328" xlink:href="#DejaVuSans-73"/>
     <use x="1625.085938" xlink:href="#DejaVuSans-20"/>
     <use x="1656.873047" xlink:href="#DejaVuSans-69"/>
     <use x="1684.65625" xlink:href="#DejaVuSans-64"/>
     <use x="1748.132812" xlink:href="#DejaVuSans-65"/>
     <use x="1809.65625" xlink:href="#DejaVuSans-6e"/>
     <use x="1873.035156" xlink:href="#DejaVuSans-74"/>
     <use x="1912.244141" xlink:href="#DejaVuSans-69"/>
     <use x="1940.027344" xlink:href="#DejaVuSans-66"/>
     <use x="1975.232422" xlink:href="#DejaVuSans-69"/>
     <use x="2003.015625" xlink:href="#DejaVuSans-6b"/>
     <use x="2060.878906" xlink:href="#DejaVuSans-6f"/>
     <use x="2122.060547" xlink:href="#DejaVuSans-76"/>
     <use x="2181.240234" xlink:href="#DejaVuSans-61"/>
     <use x="2242.519531" xlink:href="#DejaVuSans-6e"/>
     <use x="2305.898438" xlink:href="#DejaVuSans-6f"/>
     <use x="2367.080078" xlink:href="#DejaVuSans-75"/>
     <use x="2430.458984" xlink:href="#DejaVuSans-20"/>
     <use x="2462.246094" xlink:href="#DejaVuSans-73"/>
     <use x="2514.345703" xlink:href="#DejaVuSans-6f"/>
     <use x="2575.527344" xlink:href="#DejaVuSans-75"/>
     <use x="2638.90625" xlink:href="#DejaVuSans-73"/>
     <use x="2691.005859" xlink:href="#DejaVuSans-74"/>
     <use x="2730.214844" xlink:href="#DejaVuSans-61"/>
     <use x="2791.494141" xlink:href="#DejaVuSans-76"/>
     <use x="2850.673828" xlink:href="#DejaVuSans-6f"/>
     <use x="2911.855469" xlink:href="#DejaVuSans-75"/>
    </g>
   </g>
   <g id="legend_1">
    <g id="patch_7">
     <path d="M 256.540313 79.22825 
L 407.72 79.22825 
Q 409.72 79.22825 409.72 77.22825 
L 409.72 48.472 
Q 409.72 46.472 407.72 46.472 
L 256.540313 46.472 
Q 254.540313 46.472 254.540313 48.472 
L 254.540313 77.22825 
Q 254.540313 79.22825 256.540313 79.22825 
z
" style="fill:#ffffff;opacity:0.8;stroke:#cccccc;stroke-linejoin:miter;"/>
    </g>
    <g id="line2d_34">
     <path d="M 258.540313 54.970438 
L 278.540313 54.970438 
" style="fill:none;stroke:#1f77b4;stroke-linecap:square;stroke-opacity:0.6;stroke-width:2;"/>
    </g>
    <g id="line2d_35"/>
    <g id="text_19">
     <!-- naměřené hodnoty -->
     <defs>
      <path d="M 56.203125 29.59375 
L 56.203125 25.203125 
L 14.890625 25.203125 
Q 15.484375 15.921875 20.484375 11.0625 
Q 25.484375 6.203125 34.421875 6.203125 
Q 39.59375 6.203125 44.453125 7.46875 
Q 49.3125 8.734375 54.109375 11.28125 
L 54.109375 2.78125 
Q 49.265625 0.734375 44.1875 -0.34375 
Q 39.109375 -1.421875 33.890625 -1.421875 
Q 20.796875 -1.421875 13.15625 6.1875 
Q 5.515625 13.8125 5.515625 26.8125 
Q 5.515625 40.234375 12.765625 48.109375 
Q 20.015625 56 32.328125 56 
Q 43.359375 56 49.78125 48.890625 
Q 56.203125 41.796875 56.203125 29.59375 
z
M 47.21875 32.234375 
Q 47.125 39.59375 43.09375 43.984375 
Q 39.0625 48.390625 32.421875 48.390625 
Q 24.90625 48.390625 20.390625 44.140625 
Q 15.875 39.890625 15.1875 32.171875 
z
M 38.578125 79.984375 
L 48.296875 79.984375 
L 32.375 61.625 
L 24.90625 61.625 
z
" id="DejaVuSans-e9"/>
      <path d="M 32.171875 -5.078125 
Q 28.375 -14.84375 24.75 -17.8125 
Q 21.140625 -20.796875 15.09375 -20.796875 
L 7.90625 -20.796875 
L 7.90625 -13.28125 
L 13.1875 -13.28125 
Q 16.890625 -13.28125 18.9375 -11.515625 
Q 21 -9.765625 23.484375 -3.21875 
L 25.09375 0.875 
L 2.984375 54.6875 
L 12.5 54.6875 
L 29.59375 11.921875 
L 46.6875 54.6875 
L 56.203125 54.6875 
z
" id="DejaVuSans-79"/>
     </defs>
     <g transform="translate(286.540313 58.470438)scale(0.1 -0.1)">
      <use xlink:href="#DejaVuSans-6e"/>
      <use x="63.378906" xlink:href="#DejaVuSans-61"/>
      <use x="124.658203" xlink:href="#DejaVuSans-6d"/>
      <use x="222.070312" xlink:href="#DejaVuSans-11b"/>
      <use x="283.59375" xlink:href="#DejaVuSans-159"/>
      <use x="324.675781" xlink:href="#DejaVuSans-65"/>
      <use x="386.199219" xlink:href="#DejaVuSans-6e"/>
      <use x="449.578125" xlink:href="#DejaVuSans-e9"/>
      <use x="511.101562" xlink:href="#DejaVuSans-20"/>
      <use x="542.888672" xlink:href="#DejaVuSans-68"/>
      <use x="606.267578" xlink:href="#DejaVuSans-6f"/>
      <use x="667.449219" xlink:href="#DejaVuSans-64"/>
      <use x="730.925781" xlink:href="#DejaVuSans-6e"/>
      <use x="794.304688" xlink:href="#DejaVuSans-6f"/>
      <use x="855.486328" xlink:href="#DejaVuSans-74"/>
      <use x="894.695312" xlink:href="#DejaVuSans-79"/>
     </g>
    </g>
    <g id="line2d_36">
     <path d="M 258.540313 69.648563 
L 278.540313 69.648563 
" style="fill:none;stroke:#ff0000;stroke-dasharray:12.8,3.2,2,3.2;stroke-dashoffset:0;stroke-opacity:0.6;stroke-width:2;"/>
    </g>
    <g id="line2d_37"/>
    <g id="text_20">
     <!-- identifikovaná soustava -->
     <g transform="translate(286.540313 73.148563)scale(0.1 -0.1)">
      <use xlink:href="#DejaVuSans-69"/>
      <use x="27.783203" xlink:href="#DejaVuSans-64"/>
      <use x="91.259766" xlink:href="#DejaVuSans-65"/>
      <use x="152.783203" xlink:href="#DejaVuSans-6e"/>
      <use x="216.162109" xlink:href="#DejaVuSans-74"/>
      <use x="255.371094" xlink:href="#DejaVuSans-69"/>
      <use x="283.154297" xlink:href="#DejaVuSans-66"/>
      <use x="318.359375" xlink:href="#DejaVuSans-69"/>
      <use x="346.142578" xlink:href="#DejaVuSans-6b"/>
      <use x="404.005859" xlink:href="#DejaVuSans-6f"/>
      <use x="465.1875" xlink:href="#DejaVuSans-76"/>
      <use x="524.367188" xlink:href="#DejaVuSans-61"/>
      <use x="585.646484" xlink:href="#DejaVuSans-6e"/>
      <use x="649.025391" xlink:href="#DejaVuSans-e1"/>
      <use x="710.304688" xlink:href="#DejaVuSans-20"/>
      <use x="742.091797" xlink:href="#DejaVuSans-73"/>
      <use x="794.191406" xlink:href="#DejaVuSans-6f"/>
      <use x="855.373047" xlink:href="#DejaVuSans-75"/>
      <use x="918.751953" xlink:href="#DejaVuSans-73"/>
      <use x="970.851562" xlink:href="#DejaVuSans-74"/>
      <use x="1010.060547" xlink:href="#DejaVuSans-61"/>
      <use x="1071.339844" xlink:href="#DejaVuSans-76"/>
      <use x="1130.519531" xlink:href="#DejaVuSans-61"/>
     </g>
    </g>
   </g>
  </g>
 </g>
 <defs>
  <clipPath id="pbb9dc29b6b">
   <rect height="266.112" width="357.12" x="57.6" y="41.472"/>
  </clipPath>
 </defs>
</svg>
